<?xml version="1.0" encoding="utf-8" standalone="no"?>
<!DOCTYPE svg PUBLIC "-//W3C//DTD SVG 1.1//EN"
  "http://www.w3.org/Graphics/SVG/1.1/DTD/svg11.dtd">
<svg xmlns:xlink="http://www.w3.org/1999/xlink" width="424.46125pt" height="351.674688pt" viewBox="0 0 424.46125 351.674688" xmlns="http://www.w3.org/2000/svg" version="1.1">
 <metadata>
  <rdf:RDF xmlns:dc="http://purl.org/dc/elements/1.1/" xmlns:cc="http://creativecommons.org/ns#" xmlns:rdf="http://www.w3.org/1999/02/22-rdf-syntax-ns#">
   <cc:Work>
    <dc:type rdf:resource="http://purl.org/dc/dcmitype/StillImage"/>
    <dc:date>2025-12-18T23:20:44.039906</dc:date>
    <dc:format>image/svg+xml</dc:format>
    <dc:creator>
     <cc:Agent>
      <dc:title>Matplotlib v3.9.2, https://matplotlib.org/</dc:title>
     </cc:Agent>
    </dc:creator>
   </cc:Work>
  </rdf:RDF>
 </metadata>
 <defs>
  <style type="text/css">*{stroke-linejoin: round; stroke-linecap: butt}</style>
 </defs>
 <g id="figure_1">
  <g id="patch_1">
   <path d="M 0 351.674688 
L 424.46125 351.674688 
L 424.46125 0 
L 0 0 
z
" style="fill: #ffffff"/>
  </g>
  <g id="axes_1">
   <g id="patch_2">
    <path d="M 43.78125 314.118438 
L 417.26125 314.118438 
L 417.26125 20.798437 
L 43.78125 20.798437 
z
" style="fill: #ffffff"/>
   </g>
   <g id="matplotlib.axis_1">
    <g id="xtick_1">
     <g id="line2d_1">
      <defs>
       <path id="m7109d93eb5" d="M 0 0 
L 0 3.5 
" style="stroke: #000000; stroke-width: 0.8"/>
      </defs>
      <g>
       <use xlink:href="#m7109d93eb5" x="74.710789" y="314.118438" style="stroke: #000000; stroke-width: 0.8"/>
      </g>
     </g>
     <g id="text_1">
      <!-- 20 -->
      <g transform="translate(68.348289 328.716875) scale(0.1 -0.1)">
       <defs>
        <path id="DejaVuSans-32" d="M 1228 531 
L 3431 531 
L 3431 0 
L 469 0 
L 469 531 
Q 828 903 1448 1529 
Q 2069 2156 2228 2338 
Q 2531 2678 2651 2914 
Q 2772 3150 2772 3378 
Q 2772 3750 2511 3984 
Q 2250 4219 1831 4219 
Q 1534 4219 1204 4116 
Q 875 4013 500 3803 
L 500 4441 
Q 881 4594 1212 4672 
Q 1544 4750 1819 4750 
Q 2544 4750 2975 4387 
Q 3406 4025 3406 3419 
Q 3406 3131 3298 2873 
Q 3191 2616 2906 2266 
Q 2828 2175 2409 1742 
Q 1991 1309 1228 531 
z
" transform="scale(0.015625)"/>
        <path id="DejaVuSans-30" d="M 2034 4250 
Q 1547 4250 1301 3770 
Q 1056 3291 1056 2328 
Q 1056 1369 1301 889 
Q 1547 409 2034 409 
Q 2525 409 2770 889 
Q 3016 1369 3016 2328 
Q 3016 3291 2770 3770 
Q 2525 4250 2034 4250 
z
M 2034 4750 
Q 2819 4750 3233 4129 
Q 3647 3509 3647 2328 
Q 3647 1150 3233 529 
Q 2819 -91 2034 -91 
Q 1250 -91 836 529 
Q 422 1150 422 2328 
Q 422 3509 836 4129 
Q 1250 4750 2034 4750 
z
" transform="scale(0.015625)"/>
       </defs>
       <use xlink:href="#DejaVuSans-32"/>
       <use xlink:href="#DejaVuSans-30" x="63.623047"/>
      </g>
     </g>
    </g>
    <g id="xtick_2">
     <g id="line2d_2">
      <g>
       <use xlink:href="#m7109d93eb5" x="121.221375" y="314.118438" style="stroke: #000000; stroke-width: 0.8"/>
      </g>
     </g>
     <g id="text_2">
      <!-- 30 -->
      <g transform="translate(114.858875 328.716875) scale(0.1 -0.1)">
       <defs>
        <path id="DejaVuSans-33" d="M 2597 2516 
Q 3050 2419 3304 2112 
Q 3559 1806 3559 1356 
Q 3559 666 3084 287 
Q 2609 -91 1734 -91 
Q 1441 -91 1130 -33 
Q 819 25 488 141 
L 488 750 
Q 750 597 1062 519 
Q 1375 441 1716 441 
Q 2309 441 2620 675 
Q 2931 909 2931 1356 
Q 2931 1769 2642 2001 
Q 2353 2234 1838 2234 
L 1294 2234 
L 1294 2753 
L 1863 2753 
Q 2328 2753 2575 2939 
Q 2822 3125 2822 3475 
Q 2822 3834 2567 4026 
Q 2313 4219 1838 4219 
Q 1578 4219 1281 4162 
Q 984 4106 628 3988 
L 628 4550 
Q 988 4650 1302 4700 
Q 1616 4750 1894 4750 
Q 2613 4750 3031 4423 
Q 3450 4097 3450 3541 
Q 3450 3153 3228 2886 
Q 3006 2619 2597 2516 
z
" transform="scale(0.015625)"/>
       </defs>
       <use xlink:href="#DejaVuSans-33"/>
       <use xlink:href="#DejaVuSans-30" x="63.623047"/>
      </g>
     </g>
    </g>
    <g id="xtick_3">
     <g id="line2d_3">
      <g>
       <use xlink:href="#m7109d93eb5" x="167.73196" y="314.118438" style="stroke: #000000; stroke-width: 0.8"/>
      </g>
     </g>
     <g id="text_3">
      <!-- 40 -->
      <g transform="translate(161.36946 328.716875) scale(0.1 -0.1)">
       <defs>
        <path id="DejaVuSans-34" d="M 2419 4116 
L 825 1625 
L 2419 1625 
L 2419 4116 
z
M 2253 4666 
L 3047 4666 
L 3047 1625 
L 3713 1625 
L 3713 1100 
L 3047 1100 
L 3047 0 
L 2419 0 
L 2419 1100 
L 313 1100 
L 313 1709 
L 2253 4666 
z
" transform="scale(0.015625)"/>
       </defs>
       <use xlink:href="#DejaVuSans-34"/>
       <use xlink:href="#DejaVuSans-30" x="63.623047"/>
      </g>
     </g>
    </g>
    <g id="xtick_4">
     <g id="line2d_4">
      <g>
       <use xlink:href="#m7109d93eb5" x="214.242545" y="314.118438" style="stroke: #000000; stroke-width: 0.8"/>
      </g>
     </g>
     <g id="text_4">
      <!-- 50 -->
      <g transform="translate(207.880045 328.716875) scale(0.1 -0.1)">
       <defs>
        <path id="DejaVuSans-35" d="M 691 4666 
L 3169 4666 
L 3169 4134 
L 1269 4134 
L 1269 2991 
Q 1406 3038 1543 3061 
Q 1681 3084 1819 3084 
Q 2600 3084 3056 2656 
Q 3513 2228 3513 1497 
Q 3513 744 3044 326 
Q 2575 -91 1722 -91 
Q 1428 -91 1123 -41 
Q 819 9 494 109 
L 494 744 
Q 775 591 1075 516 
Q 1375 441 1709 441 
Q 2250 441 2565 725 
Q 2881 1009 2881 1497 
Q 2881 1984 2565 2268 
Q 2250 2553 1709 2553 
Q 1456 2553 1204 2497 
Q 953 2441 691 2322 
L 691 4666 
z
" transform="scale(0.015625)"/>
       </defs>
       <use xlink:href="#DejaVuSans-35"/>
       <use xlink:href="#DejaVuSans-30" x="63.623047"/>
      </g>
     </g>
    </g>
    <g id="xtick_5">
     <g id="line2d_5">
      <g>
       <use xlink:href="#m7109d93eb5" x="260.75313" y="314.118438" style="stroke: #000000; stroke-width: 0.8"/>
      </g>
     </g>
     <g id="text_5">
      <!-- 60 -->
      <g transform="translate(254.39063 328.716875) scale(0.1 -0.1)">
       <defs>
        <path id="DejaVuSans-36" d="M 2113 2584 
Q 1688 2584 1439 2293 
Q 1191 2003 1191 1497 
Q 1191 994 1439 701 
Q 1688 409 2113 409 
Q 2538 409 2786 701 
Q 3034 994 3034 1497 
Q 3034 2003 2786 2293 
Q 2538 2584 2113 2584 
z
M 3366 4563 
L 3366 3988 
Q 3128 4100 2886 4159 
Q 2644 4219 2406 4219 
Q 1781 4219 1451 3797 
Q 1122 3375 1075 2522 
Q 1259 2794 1537 2939 
Q 1816 3084 2150 3084 
Q 2853 3084 3261 2657 
Q 3669 2231 3669 1497 
Q 3669 778 3244 343 
Q 2819 -91 2113 -91 
Q 1303 -91 875 529 
Q 447 1150 447 2328 
Q 447 3434 972 4092 
Q 1497 4750 2381 4750 
Q 2619 4750 2861 4703 
Q 3103 4656 3366 4563 
z
" transform="scale(0.015625)"/>
       </defs>
       <use xlink:href="#DejaVuSans-36"/>
       <use xlink:href="#DejaVuSans-30" x="63.623047"/>
      </g>
     </g>
    </g>
    <g id="xtick_6">
     <g id="line2d_6">
      <g>
       <use xlink:href="#m7109d93eb5" x="307.263716" y="314.118438" style="stroke: #000000; stroke-width: 0.8"/>
      </g>
     </g>
     <g id="text_6">
      <!-- 70 -->
      <g transform="translate(300.901216 328.716875) scale(0.1 -0.1)">
       <defs>
        <path id="DejaVuSans-37" d="M 525 4666 
L 3525 4666 
L 3525 4397 
L 1831 0 
L 1172 0 
L 2766 4134 
L 525 4134 
L 525 4666 
z
" transform="scale(0.015625)"/>
       </defs>
       <use xlink:href="#DejaVuSans-37"/>
       <use xlink:href="#DejaVuSans-30" x="63.623047"/>
      </g>
     </g>
    </g>
    <g id="xtick_7">
     <g id="line2d_7">
      <g>
       <use xlink:href="#m7109d93eb5" x="353.774301" y="314.118438" style="stroke: #000000; stroke-width: 0.8"/>
      </g>
     </g>
     <g id="text_7">
      <!-- 80 -->
      <g transform="translate(347.411801 328.716875) scale(0.1 -0.1)">
       <defs>
        <path id="DejaVuSans-38" d="M 2034 2216 
Q 1584 2216 1326 1975 
Q 1069 1734 1069 1313 
Q 1069 891 1326 650 
Q 1584 409 2034 409 
Q 2484 409 2743 651 
Q 3003 894 3003 1313 
Q 3003 1734 2745 1975 
Q 2488 2216 2034 2216 
z
M 1403 2484 
Q 997 2584 770 2862 
Q 544 3141 544 3541 
Q 544 4100 942 4425 
Q 1341 4750 2034 4750 
Q 2731 4750 3128 4425 
Q 3525 4100 3525 3541 
Q 3525 3141 3298 2862 
Q 3072 2584 2669 2484 
Q 3125 2378 3379 2068 
Q 3634 1759 3634 1313 
Q 3634 634 3220 271 
Q 2806 -91 2034 -91 
Q 1263 -91 848 271 
Q 434 634 434 1313 
Q 434 1759 690 2068 
Q 947 2378 1403 2484 
z
M 1172 3481 
Q 1172 3119 1398 2916 
Q 1625 2713 2034 2713 
Q 2441 2713 2670 2916 
Q 2900 3119 2900 3481 
Q 2900 3844 2670 4047 
Q 2441 4250 2034 4250 
Q 1625 4250 1398 4047 
Q 1172 3844 1172 3481 
z
" transform="scale(0.015625)"/>
       </defs>
       <use xlink:href="#DejaVuSans-38"/>
       <use xlink:href="#DejaVuSans-30" x="63.623047"/>
      </g>
     </g>
    </g>
    <g id="xtick_8">
     <g id="line2d_8">
      <g>
       <use xlink:href="#m7109d93eb5" x="400.284886" y="314.118438" style="stroke: #000000; stroke-width: 0.8"/>
      </g>
     </g>
     <g id="text_8">
      <!-- 90 -->
      <g transform="translate(393.922386 328.716875) scale(0.1 -0.1)">
       <defs>
        <path id="DejaVuSans-39" d="M 703 97 
L 703 672 
Q 941 559 1184 500 
Q 1428 441 1663 441 
Q 2288 441 2617 861 
Q 2947 1281 2994 2138 
Q 2813 1869 2534 1725 
Q 2256 1581 1919 1581 
Q 1219 1581 811 2004 
Q 403 2428 403 3163 
Q 403 3881 828 4315 
Q 1253 4750 1959 4750 
Q 2769 4750 3195 4129 
Q 3622 3509 3622 2328 
Q 3622 1225 3098 567 
Q 2575 -91 1691 -91 
Q 1453 -91 1209 -44 
Q 966 3 703 97 
z
M 1959 2075 
Q 2384 2075 2632 2365 
Q 2881 2656 2881 3163 
Q 2881 3666 2632 3958 
Q 2384 4250 1959 4250 
Q 1534 4250 1286 3958 
Q 1038 3666 1038 3163 
Q 1038 2656 1286 2365 
Q 1534 2075 1959 2075 
z
" transform="scale(0.015625)"/>
       </defs>
       <use xlink:href="#DejaVuSans-39"/>
       <use xlink:href="#DejaVuSans-30" x="63.623047"/>
      </g>
     </g>
    </g>
    <g id="text_9">
     <!-- x -->
     <g transform="translate(227.561875 342.395) scale(0.1 -0.1)">
      <defs>
       <path id="DejaVuSans-78" d="M 3513 3500 
L 2247 1797 
L 3578 0 
L 2900 0 
L 1881 1375 
L 863 0 
L 184 0 
L 1544 1831 
L 300 3500 
L 978 3500 
L 1906 2253 
L 2834 3500 
L 3513 3500 
z
" transform="scale(0.015625)"/>
      </defs>
      <use xlink:href="#DejaVuSans-78"/>
     </g>
    </g>
   </g>
   <g id="matplotlib.axis_2">
    <g id="ytick_1">
     <g id="line2d_9">
      <defs>
       <path id="m6b7377be47" d="M 0 0 
L -3.5 0 
" style="stroke: #000000; stroke-width: 0.8"/>
      </defs>
      <g>
       <use xlink:href="#m6b7377be47" x="43.78125" y="300.809689" style="stroke: #000000; stroke-width: 0.8"/>
      </g>
     </g>
     <g id="text_10">
      <!-- 0.0 -->
      <g transform="translate(20.878125 304.608907) scale(0.1 -0.1)">
       <defs>
        <path id="DejaVuSans-2e" d="M 684 794 
L 1344 794 
L 1344 0 
L 684 0 
L 684 794 
z
" transform="scale(0.015625)"/>
       </defs>
       <use xlink:href="#DejaVuSans-30"/>
       <use xlink:href="#DejaVuSans-2e" x="63.623047"/>
       <use xlink:href="#DejaVuSans-30" x="95.410156"/>
      </g>
     </g>
    </g>
    <g id="ytick_2">
     <g id="line2d_10">
      <g>
       <use xlink:href="#m6b7377be47" x="43.78125" y="247.469188" style="stroke: #000000; stroke-width: 0.8"/>
      </g>
     </g>
     <g id="text_11">
      <!-- 0.2 -->
      <g transform="translate(20.878125 251.268407) scale(0.1 -0.1)">
       <use xlink:href="#DejaVuSans-30"/>
       <use xlink:href="#DejaVuSans-2e" x="63.623047"/>
       <use xlink:href="#DejaVuSans-32" x="95.410156"/>
      </g>
     </g>
    </g>
    <g id="ytick_3">
     <g id="line2d_11">
      <g>
       <use xlink:href="#m6b7377be47" x="43.78125" y="194.128688" style="stroke: #000000; stroke-width: 0.8"/>
      </g>
     </g>
     <g id="text_12">
      <!-- 0.4 -->
      <g transform="translate(20.878125 197.927906) scale(0.1 -0.1)">
       <use xlink:href="#DejaVuSans-30"/>
       <use xlink:href="#DejaVuSans-2e" x="63.623047"/>
       <use xlink:href="#DejaVuSans-34" x="95.410156"/>
      </g>
     </g>
    </g>
    <g id="ytick_4">
     <g id="line2d_12">
      <g>
       <use xlink:href="#m6b7377be47" x="43.78125" y="140.788187" style="stroke: #000000; stroke-width: 0.8"/>
      </g>
     </g>
     <g id="text_13">
      <!-- 0.6 -->
      <g transform="translate(20.878125 144.587406) scale(0.1 -0.1)">
       <use xlink:href="#DejaVuSans-30"/>
       <use xlink:href="#DejaVuSans-2e" x="63.623047"/>
       <use xlink:href="#DejaVuSans-36" x="95.410156"/>
      </g>
     </g>
    </g>
    <g id="ytick_5">
     <g id="line2d_13">
      <g>
       <use xlink:href="#m6b7377be47" x="43.78125" y="87.447687" style="stroke: #000000; stroke-width: 0.8"/>
      </g>
     </g>
     <g id="text_14">
      <!-- 0.8 -->
      <g transform="translate(20.878125 91.246906) scale(0.1 -0.1)">
       <use xlink:href="#DejaVuSans-30"/>
       <use xlink:href="#DejaVuSans-2e" x="63.623047"/>
       <use xlink:href="#DejaVuSans-38" x="95.410156"/>
      </g>
     </g>
    </g>
    <g id="ytick_6">
     <g id="line2d_14">
      <g>
       <use xlink:href="#m6b7377be47" x="43.78125" y="34.107186" style="stroke: #000000; stroke-width: 0.8"/>
      </g>
     </g>
     <g id="text_15">
      <!-- 1.0 -->
      <g transform="translate(20.878125 37.906405) scale(0.1 -0.1)">
       <defs>
        <path id="DejaVuSans-31" d="M 794 531 
L 1825 531 
L 1825 4091 
L 703 3866 
L 703 4441 
L 1819 4666 
L 2450 4666 
L 2450 531 
L 3481 531 
L 3481 0 
L 794 0 
L 794 531 
z
" transform="scale(0.015625)"/>
       </defs>
       <use xlink:href="#DejaVuSans-31"/>
       <use xlink:href="#DejaVuSans-2e" x="63.623047"/>
       <use xlink:href="#DejaVuSans-30" x="95.410156"/>
      </g>
     </g>
    </g>
    <g id="text_16">
     <!-- Probability -->
     <g transform="translate(14.798438 193.887344) rotate(-90) scale(0.1 -0.1)">
      <defs>
       <path id="DejaVuSans-50" d="M 1259 4147 
L 1259 2394 
L 2053 2394 
Q 2494 2394 2734 2622 
Q 2975 2850 2975 3272 
Q 2975 3691 2734 3919 
Q 2494 4147 2053 4147 
L 1259 4147 
z
M 628 4666 
L 2053 4666 
Q 2838 4666 3239 4311 
Q 3641 3956 3641 3272 
Q 3641 2581 3239 2228 
Q 2838 1875 2053 1875 
L 1259 1875 
L 1259 0 
L 628 0 
L 628 4666 
z
" transform="scale(0.015625)"/>
       <path id="DejaVuSans-72" d="M 2631 2963 
Q 2534 3019 2420 3045 
Q 2306 3072 2169 3072 
Q 1681 3072 1420 2755 
Q 1159 2438 1159 1844 
L 1159 0 
L 581 0 
L 581 3500 
L 1159 3500 
L 1159 2956 
Q 1341 3275 1631 3429 
Q 1922 3584 2338 3584 
Q 2397 3584 2469 3576 
Q 2541 3569 2628 3553 
L 2631 2963 
z
" transform="scale(0.015625)"/>
       <path id="DejaVuSans-6f" d="M 1959 3097 
Q 1497 3097 1228 2736 
Q 959 2375 959 1747 
Q 959 1119 1226 758 
Q 1494 397 1959 397 
Q 2419 397 2687 759 
Q 2956 1122 2956 1747 
Q 2956 2369 2687 2733 
Q 2419 3097 1959 3097 
z
M 1959 3584 
Q 2709 3584 3137 3096 
Q 3566 2609 3566 1747 
Q 3566 888 3137 398 
Q 2709 -91 1959 -91 
Q 1206 -91 779 398 
Q 353 888 353 1747 
Q 353 2609 779 3096 
Q 1206 3584 1959 3584 
z
" transform="scale(0.015625)"/>
       <path id="DejaVuSans-62" d="M 3116 1747 
Q 3116 2381 2855 2742 
Q 2594 3103 2138 3103 
Q 1681 3103 1420 2742 
Q 1159 2381 1159 1747 
Q 1159 1113 1420 752 
Q 1681 391 2138 391 
Q 2594 391 2855 752 
Q 3116 1113 3116 1747 
z
M 1159 2969 
Q 1341 3281 1617 3432 
Q 1894 3584 2278 3584 
Q 2916 3584 3314 3078 
Q 3713 2572 3713 1747 
Q 3713 922 3314 415 
Q 2916 -91 2278 -91 
Q 1894 -91 1617 61 
Q 1341 213 1159 525 
L 1159 0 
L 581 0 
L 581 4863 
L 1159 4863 
L 1159 2969 
z
" transform="scale(0.015625)"/>
       <path id="DejaVuSans-61" d="M 2194 1759 
Q 1497 1759 1228 1600 
Q 959 1441 959 1056 
Q 959 750 1161 570 
Q 1363 391 1709 391 
Q 2188 391 2477 730 
Q 2766 1069 2766 1631 
L 2766 1759 
L 2194 1759 
z
M 3341 1997 
L 3341 0 
L 2766 0 
L 2766 531 
Q 2569 213 2275 61 
Q 1981 -91 1556 -91 
Q 1019 -91 701 211 
Q 384 513 384 1019 
Q 384 1609 779 1909 
Q 1175 2209 1959 2209 
L 2766 2209 
L 2766 2266 
Q 2766 2663 2505 2880 
Q 2244 3097 1772 3097 
Q 1472 3097 1187 3025 
Q 903 2953 641 2809 
L 641 3341 
Q 956 3463 1253 3523 
Q 1550 3584 1831 3584 
Q 2591 3584 2966 3190 
Q 3341 2797 3341 1997 
z
" transform="scale(0.015625)"/>
       <path id="DejaVuSans-69" d="M 603 3500 
L 1178 3500 
L 1178 0 
L 603 0 
L 603 3500 
z
M 603 4863 
L 1178 4863 
L 1178 4134 
L 603 4134 
L 603 4863 
z
" transform="scale(0.015625)"/>
       <path id="DejaVuSans-6c" d="M 603 4863 
L 1178 4863 
L 1178 0 
L 603 0 
L 603 4863 
z
" transform="scale(0.015625)"/>
       <path id="DejaVuSans-74" d="M 1172 4494 
L 1172 3500 
L 2356 3500 
L 2356 3053 
L 1172 3053 
L 1172 1153 
Q 1172 725 1289 603 
Q 1406 481 1766 481 
L 2356 481 
L 2356 0 
L 1766 0 
Q 1100 0 847 248 
Q 594 497 594 1153 
L 594 3053 
L 172 3053 
L 172 3500 
L 594 3500 
L 594 4494 
L 1172 4494 
z
" transform="scale(0.015625)"/>
       <path id="DejaVuSans-79" d="M 2059 -325 
Q 1816 -950 1584 -1140 
Q 1353 -1331 966 -1331 
L 506 -1331 
L 506 -850 
L 844 -850 
Q 1081 -850 1212 -737 
Q 1344 -625 1503 -206 
L 1606 56 
L 191 3500 
L 800 3500 
L 1894 763 
L 2988 3500 
L 3597 3500 
L 2059 -325 
z
" transform="scale(0.015625)"/>
      </defs>
      <use xlink:href="#DejaVuSans-50"/>
      <use xlink:href="#DejaVuSans-72" x="58.552734"/>
      <use xlink:href="#DejaVuSans-6f" x="97.416016"/>
      <use xlink:href="#DejaVuSans-62" x="158.597656"/>
      <use xlink:href="#DejaVuSans-61" x="222.074219"/>
      <use xlink:href="#DejaVuSans-62" x="283.353516"/>
      <use xlink:href="#DejaVuSans-69" x="346.830078"/>
      <use xlink:href="#DejaVuSans-6c" x="374.613281"/>
      <use xlink:href="#DejaVuSans-69" x="402.396484"/>
      <use xlink:href="#DejaVuSans-74" x="430.179688"/>
      <use xlink:href="#DejaVuSans-79" x="469.388672"/>
     </g>
    </g>
   </g>
   <g id="line2d_15">
    <path d="M 60.757614 285.551478 
L 65.408672 283.187799 
L 65.408672 283.187799 
L 70.059731 280.549876 
L 70.059731 280.549876 
L 74.710789 277.621502 
L 74.710789 277.621502 
L 79.361848 274.387939 
L 79.361848 274.387939 
L 84.012906 270.836315 
L 84.012906 270.836315 
L 88.663965 266.956034 
L 88.663965 266.956034 
L 93.315023 262.739167 
L 93.315023 262.739167 
L 97.966082 258.180819 
L 97.966082 258.180819 
L 102.61714 253.279472 
L 102.61714 253.279472 
L 107.268199 248.037264 
L 107.268199 248.037264 
L 111.919257 242.460227 
L 111.919257 242.460227 
L 116.570316 236.55844 
L 116.570316 236.55844 
L 121.221375 230.346115 
L 121.221375 230.346115 
L 125.872433 223.841594 
L 125.872433 223.841594 
L 130.523492 217.06725 
L 130.523492 217.06725 
L 135.17455 210.049309 
L 135.17455 210.049309 
L 144.476667 195.405035 
L 144.476667 195.405035 
L 153.778784 180.182948 
L 153.778784 180.182948 
L 177.034077 141.668937 
L 177.034077 141.668937 
L 186.336194 126.923822 
L 186.336194 126.923822 
L 190.987252 119.841285 
L 190.987252 119.841285 
L 195.638311 112.99414 
L 195.638311 112.99414 
L 200.28937 106.40967 
L 200.28937 106.40967 
L 204.940428 100.111378 
L 204.940428 100.111378 
L 209.591487 94.118777 
L 209.591487 94.118777 
L 214.242545 88.447269 
L 214.242545 88.447269 
L 218.893604 83.108115 
L 218.893604 83.108115 
L 223.544662 78.108496 
L 223.544662 78.108496 
L 228.195721 73.451649 
L 228.195721 73.451649 
L 232.846779 69.137077 
L 232.846779 69.137077 
L 237.497838 65.160823 
L 237.497838 65.160823 
L 242.148896 61.515794 
L 242.148896 61.515794 
L 246.799955 58.192117 
L 246.799955 58.192117 
L 251.451013 55.177536 
L 251.451013 55.177536 
L 256.102072 52.457806 
L 256.102072 52.457806 
L 260.75313 50.017101 
L 260.75313 50.017101 
L 265.404189 47.838411 
L 265.404189 47.838411 
L 270.055248 45.903922 
L 270.055248 45.903922 
L 274.706306 44.195372 
L 274.706306 44.195372 
L 279.357365 42.694376 
L 279.357365 42.694376 
L 284.008423 41.382712 
L 284.008423 41.382712 
L 288.659482 40.242579 
L 288.659482 40.242579 
L 293.31054 39.2568 
L 293.31054 39.2568 
L 297.961599 38.408999 
L 297.961599 38.408999 
L 307.263716 37.066573 
L 307.263716 37.066573 
L 316.565833 36.104396 
L 316.565833 36.104396 
L 325.86795 35.429255 
L 325.86795 35.429255 
L 335.170067 34.965478 
L 335.170067 34.965478 
L 349.123243 34.539949 
L 349.123243 34.539949 
L 367.727477 34.269259 
L 367.727477 34.269259 
L 395.633828 34.139169 
L 395.633828 34.139169 
L 400.284886 34.131165 
L 400.284886 34.131165 
" clip-path="url(#p0f78bdacd3)" style="fill: none; stroke: #1f77b4; stroke-opacity: 0.8; stroke-width: 1.5; stroke-linecap: square"/>
   </g>
   <g id="line2d_16">
    <path d="M 60.757614 49.365397 
L 65.408672 51.729076 
L 65.408672 51.729076 
L 70.059731 54.366999 
L 70.059731 54.366999 
L 74.710789 57.295373 
L 74.710789 57.295373 
L 79.361848 60.528936 
L 79.361848 60.528936 
L 84.012906 64.08056 
L 84.012906 64.08056 
L 88.663965 67.960841 
L 88.663965 67.960841 
L 93.315023 72.177708 
L 93.315023 72.177708 
L 97.966082 76.736056 
L 97.966082 76.736056 
L 102.61714 81.637403 
L 102.61714 81.637403 
L 107.268199 86.879611 
L 107.268199 86.879611 
L 111.919257 92.456648 
L 111.919257 92.456648 
L 116.570316 98.358435 
L 116.570316 98.358435 
L 121.221375 104.57076 
L 121.221375 104.57076 
L 125.872433 111.075281 
L 125.872433 111.075281 
L 130.523492 117.849625 
L 130.523492 117.849625 
L 135.17455 124.867566 
L 135.17455 124.867566 
L 144.476667 139.51184 
L 144.476667 139.51184 
L 153.778784 154.733927 
L 153.778784 154.733927 
L 177.034077 193.247938 
L 177.034077 193.247938 
L 186.336194 207.993053 
L 186.336194 207.993053 
L 190.987252 215.07559 
L 190.987252 215.07559 
L 195.638311 221.922735 
L 195.638311 221.922735 
L 200.28937 228.507205 
L 200.28937 228.507205 
L 204.940428 234.805497 
L 204.940428 234.805497 
L 209.591487 240.798098 
L 209.591487 240.798098 
L 214.242545 246.469606 
L 214.242545 246.469606 
L 218.893604 251.80876 
L 218.893604 251.80876 
L 223.544662 256.808379 
L 223.544662 256.808379 
L 228.195721 261.465226 
L 228.195721 261.465226 
L 232.846779 265.779798 
L 232.846779 265.779798 
L 237.497838 269.756052 
L 237.497838 269.756052 
L 242.148896 273.401081 
L 242.148896 273.401081 
L 246.799955 276.724758 
L 246.799955 276.724758 
L 251.451013 279.739339 
L 251.451013 279.739339 
L 256.102072 282.459069 
L 256.102072 282.459069 
L 260.75313 284.899774 
L 260.75313 284.899774 
L 265.404189 287.078464 
L 265.404189 287.078464 
L 270.055248 289.012953 
L 270.055248 289.012953 
L 274.706306 290.721503 
L 274.706306 290.721503 
L 279.357365 292.222499 
L 279.357365 292.222499 
L 284.008423 293.534163 
L 284.008423 293.534163 
L 288.659482 294.674296 
L 288.659482 294.674296 
L 293.31054 295.660075 
L 293.31054 295.660075 
L 297.961599 296.507876 
L 297.961599 296.507876 
L 307.263716 297.850302 
L 307.263716 297.850302 
L 316.565833 298.812479 
L 316.565833 298.812479 
L 325.86795 299.48762 
L 325.86795 299.48762 
L 335.170067 299.951397 
L 335.170067 299.951397 
L 349.123243 300.376926 
L 349.123243 300.376926 
L 367.727477 300.647616 
L 367.727477 300.647616 
L 395.633828 300.777706 
L 395.633828 300.777706 
L 400.284886 300.78571 
L 400.284886 300.78571 
" clip-path="url(#p0f78bdacd3)" style="fill: none; stroke-dasharray: 5.55,2.4; stroke-dashoffset: 0; stroke: #ff7f0e; stroke-opacity: 0.8; stroke-width: 1.5"/>
   </g>
   <g id="line2d_17">
    <path d="M 60.757614 295.475546 
L 65.408672 293.230104 
L 65.408672 293.230104 
L 70.059731 290.411079 
L 70.059731 290.411079 
L 74.710789 286.977598 
L 74.710789 286.977598 
L 79.361848 282.906057 
L 79.361848 282.906057 
L 84.012906 278.190947 
L 84.012906 278.190947 
L 88.663965 272.844503 
L 88.663965 272.844503 
L 93.315023 266.895362 
L 93.315023 266.895362 
L 97.966082 260.386487 
L 97.966082 260.386487 
L 102.61714 253.37263 
L 102.61714 253.37263 
L 107.268199 245.917541 
L 107.268199 245.917541 
L 111.919257 238.091159 
L 111.919257 238.091159 
L 121.221375 221.619337 
L 121.221375 221.619337 
L 149.127726 170.689971 
L 149.127726 170.689971 
L 153.778784 162.598515 
L 153.778784 162.598515 
L 158.429843 154.737171 
L 158.429843 154.737171 
L 163.080901 147.135323 
L 163.080901 147.135323 
L 167.73196 139.816362 
L 167.73196 139.816362 
L 172.383018 132.798099 
L 172.383018 132.798099 
L 177.034077 126.093244 
L 177.034077 126.093244 
L 181.685135 119.709909 
L 181.685135 119.709909 
L 186.336194 113.652135 
L 186.336194 113.652135 
L 190.987252 107.920402 
L 190.987252 107.920402 
L 195.638311 102.512135 
L 195.638311 102.512135 
L 200.28937 97.422173 
L 200.28937 97.422173 
L 204.940428 92.643216 
L 204.940428 92.643216 
L 209.591487 88.166223 
L 209.591487 88.166223 
L 214.242545 83.980784 
L 214.242545 83.980784 
L 218.893604 80.075442 
L 218.893604 80.075442 
L 223.544662 76.437986 
L 223.544662 76.437986 
L 228.195721 73.0557 
L 228.195721 73.0557 
L 232.846779 69.915579 
L 232.846779 69.915579 
L 237.497838 67.004515 
L 237.497838 67.004515 
L 242.148896 64.309448 
L 242.148896 64.309448 
L 246.799955 61.817497 
L 246.799955 61.817497 
L 251.451013 59.516059 
L 251.451013 59.516059 
L 256.102072 57.392897 
L 256.102072 57.392897 
L 260.75313 55.436199 
L 260.75313 55.436199 
L 265.404189 53.634627 
L 265.404189 53.634627 
L 270.055248 51.977349 
L 270.055248 51.977349 
L 274.706306 50.454064 
L 274.706306 50.454064 
L 284.008423 47.77097 
L 284.008423 47.77097 
L 293.31054 45.513761 
L 293.31054 45.513761 
L 302.612657 43.619339 
L 302.612657 43.619339 
L 311.914774 42.032627 
L 311.914774 42.032627 
L 321.216891 40.705951 
L 321.216891 40.705951 
L 330.519008 39.598327 
L 330.519008 39.598327 
L 339.821125 38.67473 
L 339.821125 38.67473 
L 353.774301 37.570495 
L 353.774301 37.570495 
L 367.727477 36.732448 
L 367.727477 36.732448 
L 381.680652 36.097228 
L 400.284886 35.483314 
L 400.284886 35.483314 
" clip-path="url(#p0f78bdacd3)" style="fill: none; stroke: #2ca02c; stroke-opacity: 0.8; stroke-width: 1.5; stroke-linecap: square"/>
   </g>
   <g id="line2d_18">
    <path d="M 60.757614 39.441329 
L 65.408672 41.686771 
L 65.408672 41.686771 
L 70.059731 44.505796 
L 70.059731 44.505796 
L 74.710789 47.939277 
L 74.710789 47.939277 
L 79.361848 52.010818 
L 79.361848 52.010818 
L 84.012906 56.725928 
L 84.012906 56.725928 
L 88.663965 62.072372 
L 88.663965 62.072372 
L 93.315023 68.021513 
L 93.315023 68.021513 
L 97.966082 74.530388 
L 97.966082 74.530388 
L 102.61714 81.544245 
L 102.61714 81.544245 
L 107.268199 88.999334 
L 107.268199 88.999334 
L 111.919257 96.825716 
L 111.919257 96.825716 
L 121.221375 113.297538 
L 121.221375 113.297538 
L 149.127726 164.226904 
L 149.127726 164.226904 
L 153.778784 172.31836 
L 153.778784 172.31836 
L 158.429843 180.179704 
L 158.429843 180.179704 
L 163.080901 187.781552 
L 163.080901 187.781552 
L 167.73196 195.100513 
L 167.73196 195.100513 
L 172.383018 202.118776 
L 172.383018 202.118776 
L 177.034077 208.823631 
L 177.034077 208.823631 
L 181.685135 215.206966 
L 181.685135 215.206966 
L 186.336194 221.26474 
L 186.336194 221.26474 
L 190.987252 226.996473 
L 190.987252 226.996473 
L 195.638311 232.40474 
L 195.638311 232.40474 
L 200.28937 237.494702 
L 200.28937 237.494702 
L 204.940428 242.273659 
L 204.940428 242.273659 
L 209.591487 246.750652 
L 209.591487 246.750652 
L 214.242545 250.936091 
L 214.242545 250.936091 
L 218.893604 254.841433 
L 218.893604 254.841433 
L 223.544662 258.478889 
L 223.544662 258.478889 
L 228.195721 261.861175 
L 228.195721 261.861175 
L 232.846779 265.001296 
L 232.846779 265.001296 
L 237.497838 267.91236 
L 237.497838 267.91236 
L 242.148896 270.607427 
L 242.148896 270.607427 
L 246.799955 273.099378 
L 246.799955 273.099378 
L 251.451013 275.400816 
L 251.451013 275.400816 
L 256.102072 277.523978 
L 256.102072 277.523978 
L 260.75313 279.480676 
L 260.75313 279.480676 
L 265.404189 281.282248 
L 265.404189 281.282248 
L 270.055248 282.939526 
L 270.055248 282.939526 
L 274.706306 284.462811 
L 274.706306 284.462811 
L 284.008423 287.145905 
L 284.008423 287.145905 
L 293.31054 289.403114 
L 293.31054 289.403114 
L 302.612657 291.297536 
L 302.612657 291.297536 
L 311.914774 292.884248 
L 311.914774 292.884248 
L 321.216891 294.210924 
L 321.216891 294.210924 
L 330.519008 295.318548 
L 330.519008 295.318548 
L 339.821125 296.242145 
L 339.821125 296.242145 
L 353.774301 297.34638 
L 353.774301 297.34638 
L 367.727477 298.184427 
L 367.727477 298.184427 
L 381.680652 298.819647 
L 400.284886 299.433561 
L 400.284886 299.433561 
" clip-path="url(#p0f78bdacd3)" style="fill: none; stroke-dasharray: 5.55,2.4; stroke-dashoffset: 0; stroke: #d62728; stroke-opacity: 0.8; stroke-width: 1.5"/>
   </g>
   <g id="patch_3">
    <path d="M 43.78125 314.118438 
L 43.78125 20.798437 
" style="fill: none; stroke: #000000; stroke-width: 0.8; stroke-linejoin: miter; stroke-linecap: square"/>
   </g>
   <g id="patch_4">
    <path d="M 417.26125 314.118438 
L 417.26125 20.798437 
" style="fill: none; stroke: #000000; stroke-width: 0.8; stroke-linejoin: miter; stroke-linecap: square"/>
   </g>
   <g id="patch_5">
    <path d="M 43.78125 314.118438 
L 417.26125 314.118438 
" style="fill: none; stroke: #000000; stroke-width: 0.8; stroke-linejoin: miter; stroke-linecap: square"/>
   </g>
   <g id="patch_6">
    <path d="M 43.78125 20.798437 
L 417.26125 20.798437 
" style="fill: none; stroke: #000000; stroke-width: 0.8; stroke-linejoin: miter; stroke-linecap: square"/>
   </g>
   <g id="text_17">
    <!-- CDF Plot for age -->
    <g transform="translate(189.923594 14.798437) scale(0.1 -0.1)">
     <defs>
      <path id="DejaVuSans-43" d="M 4122 4306 
L 4122 3641 
Q 3803 3938 3442 4084 
Q 3081 4231 2675 4231 
Q 1875 4231 1450 3742 
Q 1025 3253 1025 2328 
Q 1025 1406 1450 917 
Q 1875 428 2675 428 
Q 3081 428 3442 575 
Q 3803 722 4122 1019 
L 4122 359 
Q 3791 134 3420 21 
Q 3050 -91 2638 -91 
Q 1578 -91 968 557 
Q 359 1206 359 2328 
Q 359 3453 968 4101 
Q 1578 4750 2638 4750 
Q 3056 4750 3426 4639 
Q 3797 4528 4122 4306 
z
" transform="scale(0.015625)"/>
      <path id="DejaVuSans-44" d="M 1259 4147 
L 1259 519 
L 2022 519 
Q 2988 519 3436 956 
Q 3884 1394 3884 2338 
Q 3884 3275 3436 3711 
Q 2988 4147 2022 4147 
L 1259 4147 
z
M 628 4666 
L 1925 4666 
Q 3281 4666 3915 4102 
Q 4550 3538 4550 2338 
Q 4550 1131 3912 565 
Q 3275 0 1925 0 
L 628 0 
L 628 4666 
z
" transform="scale(0.015625)"/>
      <path id="DejaVuSans-46" d="M 628 4666 
L 3309 4666 
L 3309 4134 
L 1259 4134 
L 1259 2759 
L 3109 2759 
L 3109 2228 
L 1259 2228 
L 1259 0 
L 628 0 
L 628 4666 
z
" transform="scale(0.015625)"/>
      <path id="DejaVuSans-20" transform="scale(0.015625)"/>
      <path id="DejaVuSans-66" d="M 2375 4863 
L 2375 4384 
L 1825 4384 
Q 1516 4384 1395 4259 
Q 1275 4134 1275 3809 
L 1275 3500 
L 2222 3500 
L 2222 3053 
L 1275 3053 
L 1275 0 
L 697 0 
L 697 3053 
L 147 3053 
L 147 3500 
L 697 3500 
L 697 3744 
Q 697 4328 969 4595 
Q 1241 4863 1831 4863 
L 2375 4863 
z
" transform="scale(0.015625)"/>
      <path id="DejaVuSans-67" d="M 2906 1791 
Q 2906 2416 2648 2759 
Q 2391 3103 1925 3103 
Q 1463 3103 1205 2759 
Q 947 2416 947 1791 
Q 947 1169 1205 825 
Q 1463 481 1925 481 
Q 2391 481 2648 825 
Q 2906 1169 2906 1791 
z
M 3481 434 
Q 3481 -459 3084 -895 
Q 2688 -1331 1869 -1331 
Q 1566 -1331 1297 -1286 
Q 1028 -1241 775 -1147 
L 775 -588 
Q 1028 -725 1275 -790 
Q 1522 -856 1778 -856 
Q 2344 -856 2625 -561 
Q 2906 -266 2906 331 
L 2906 616 
Q 2728 306 2450 153 
Q 2172 0 1784 0 
Q 1141 0 747 490 
Q 353 981 353 1791 
Q 353 2603 747 3093 
Q 1141 3584 1784 3584 
Q 2172 3584 2450 3431 
Q 2728 3278 2906 2969 
L 2906 3500 
L 3481 3500 
L 3481 434 
z
" transform="scale(0.015625)"/>
      <path id="DejaVuSans-65" d="M 3597 1894 
L 3597 1613 
L 953 1613 
Q 991 1019 1311 708 
Q 1631 397 2203 397 
Q 2534 397 2845 478 
Q 3156 559 3463 722 
L 3463 178 
Q 3153 47 2828 -22 
Q 2503 -91 2169 -91 
Q 1331 -91 842 396 
Q 353 884 353 1716 
Q 353 2575 817 3079 
Q 1281 3584 2069 3584 
Q 2775 3584 3186 3129 
Q 3597 2675 3597 1894 
z
M 3022 2063 
Q 3016 2534 2758 2815 
Q 2500 3097 2075 3097 
Q 1594 3097 1305 2825 
Q 1016 2553 972 2059 
L 3022 2063 
z
" transform="scale(0.015625)"/>
     </defs>
     <use xlink:href="#DejaVuSans-43"/>
     <use xlink:href="#DejaVuSans-44" x="69.824219"/>
     <use xlink:href="#DejaVuSans-46" x="146.826172"/>
     <use xlink:href="#DejaVuSans-20" x="204.345703"/>
     <use xlink:href="#DejaVuSans-50" x="236.132812"/>
     <use xlink:href="#DejaVuSans-6c" x="296.435547"/>
     <use xlink:href="#DejaVuSans-6f" x="324.21875"/>
     <use xlink:href="#DejaVuSans-74" x="385.400391"/>
     <use xlink:href="#DejaVuSans-20" x="424.609375"/>
     <use xlink:href="#DejaVuSans-66" x="456.396484"/>
     <use xlink:href="#DejaVuSans-6f" x="491.601562"/>
     <use xlink:href="#DejaVuSans-72" x="552.783203"/>
     <use xlink:href="#DejaVuSans-20" x="593.896484"/>
     <use xlink:href="#DejaVuSans-61" x="625.683594"/>
     <use xlink:href="#DejaVuSans-67" x="686.962891"/>
     <use xlink:href="#DejaVuSans-65" x="750.439453"/>
    </g>
   </g>
   <g id="legend_1">
    <g id="patch_7">
     <path d="M 273.372187 198.314687 
L 410.26125 198.314687 
Q 412.26125 198.314687 412.26125 196.314687 
L 412.26125 138.602188 
Q 412.26125 136.602188 410.26125 136.602188 
L 273.372187 136.602188 
Q 271.372187 136.602188 271.372187 138.602188 
L 271.372187 196.314687 
Q 271.372187 198.314687 273.372187 198.314687 
z
" style="fill: #ffffff; opacity: 0.8; stroke: #cccccc; stroke-linejoin: miter"/>
    </g>
    <g id="line2d_19">
     <path d="M 275.372187 144.700625 
L 285.372187 144.700625 
L 295.372187 144.700625 
" style="fill: none; stroke: #1f77b4; stroke-opacity: 0.8; stroke-width: 1.5; stroke-linecap: square"/>
    </g>
    <g id="text_18">
     <!-- norm CDF -->
     <g transform="translate(303.372187 148.200625) scale(0.1 -0.1)">
      <defs>
       <path id="DejaVuSans-6e" d="M 3513 2113 
L 3513 0 
L 2938 0 
L 2938 2094 
Q 2938 2591 2744 2837 
Q 2550 3084 2163 3084 
Q 1697 3084 1428 2787 
Q 1159 2491 1159 1978 
L 1159 0 
L 581 0 
L 581 3500 
L 1159 3500 
L 1159 2956 
Q 1366 3272 1645 3428 
Q 1925 3584 2291 3584 
Q 2894 3584 3203 3211 
Q 3513 2838 3513 2113 
z
" transform="scale(0.015625)"/>
       <path id="DejaVuSans-6d" d="M 3328 2828 
Q 3544 3216 3844 3400 
Q 4144 3584 4550 3584 
Q 5097 3584 5394 3201 
Q 5691 2819 5691 2113 
L 5691 0 
L 5113 0 
L 5113 2094 
Q 5113 2597 4934 2840 
Q 4756 3084 4391 3084 
Q 3944 3084 3684 2787 
Q 3425 2491 3425 1978 
L 3425 0 
L 2847 0 
L 2847 2094 
Q 2847 2600 2669 2842 
Q 2491 3084 2119 3084 
Q 1678 3084 1418 2786 
Q 1159 2488 1159 1978 
L 1159 0 
L 581 0 
L 581 3500 
L 1159 3500 
L 1159 2956 
Q 1356 3278 1631 3431 
Q 1906 3584 2284 3584 
Q 2666 3584 2933 3390 
Q 3200 3197 3328 2828 
z
" transform="scale(0.015625)"/>
      </defs>
      <use xlink:href="#DejaVuSans-6e"/>
      <use xlink:href="#DejaVuSans-6f" x="63.378906"/>
      <use xlink:href="#DejaVuSans-72" x="124.560547"/>
      <use xlink:href="#DejaVuSans-6d" x="163.923828"/>
      <use xlink:href="#DejaVuSans-20" x="261.335938"/>
      <use xlink:href="#DejaVuSans-43" x="293.123047"/>
      <use xlink:href="#DejaVuSans-44" x="362.947266"/>
      <use xlink:href="#DejaVuSans-46" x="439.949219"/>
     </g>
    </g>
    <g id="line2d_20">
     <path d="M 275.372187 159.37875 
L 285.372187 159.37875 
L 295.372187 159.37875 
" style="fill: none; stroke-dasharray: 5.55,2.4; stroke-dashoffset: 0; stroke: #ff7f0e; stroke-opacity: 0.8; stroke-width: 1.5"/>
    </g>
    <g id="text_19">
     <!-- norm Exceedance -->
     <g transform="translate(303.372187 162.87875) scale(0.1 -0.1)">
      <defs>
       <path id="DejaVuSans-45" d="M 628 4666 
L 3578 4666 
L 3578 4134 
L 1259 4134 
L 1259 2753 
L 3481 2753 
L 3481 2222 
L 1259 2222 
L 1259 531 
L 3634 531 
L 3634 0 
L 628 0 
L 628 4666 
z
" transform="scale(0.015625)"/>
       <path id="DejaVuSans-63" d="M 3122 3366 
L 3122 2828 
Q 2878 2963 2633 3030 
Q 2388 3097 2138 3097 
Q 1578 3097 1268 2742 
Q 959 2388 959 1747 
Q 959 1106 1268 751 
Q 1578 397 2138 397 
Q 2388 397 2633 464 
Q 2878 531 3122 666 
L 3122 134 
Q 2881 22 2623 -34 
Q 2366 -91 2075 -91 
Q 1284 -91 818 406 
Q 353 903 353 1747 
Q 353 2603 823 3093 
Q 1294 3584 2113 3584 
Q 2378 3584 2631 3529 
Q 2884 3475 3122 3366 
z
" transform="scale(0.015625)"/>
       <path id="DejaVuSans-64" d="M 2906 2969 
L 2906 4863 
L 3481 4863 
L 3481 0 
L 2906 0 
L 2906 525 
Q 2725 213 2448 61 
Q 2172 -91 1784 -91 
Q 1150 -91 751 415 
Q 353 922 353 1747 
Q 353 2572 751 3078 
Q 1150 3584 1784 3584 
Q 2172 3584 2448 3432 
Q 2725 3281 2906 2969 
z
M 947 1747 
Q 947 1113 1208 752 
Q 1469 391 1925 391 
Q 2381 391 2643 752 
Q 2906 1113 2906 1747 
Q 2906 2381 2643 2742 
Q 2381 3103 1925 3103 
Q 1469 3103 1208 2742 
Q 947 2381 947 1747 
z
" transform="scale(0.015625)"/>
      </defs>
      <use xlink:href="#DejaVuSans-6e"/>
      <use xlink:href="#DejaVuSans-6f" x="63.378906"/>
      <use xlink:href="#DejaVuSans-72" x="124.560547"/>
      <use xlink:href="#DejaVuSans-6d" x="163.923828"/>
      <use xlink:href="#DejaVuSans-20" x="261.335938"/>
      <use xlink:href="#DejaVuSans-45" x="293.123047"/>
      <use xlink:href="#DejaVuSans-78" x="356.306641"/>
      <use xlink:href="#DejaVuSans-63" x="413.736328"/>
      <use xlink:href="#DejaVuSans-65" x="468.716797"/>
      <use xlink:href="#DejaVuSans-65" x="530.240234"/>
      <use xlink:href="#DejaVuSans-64" x="591.763672"/>
      <use xlink:href="#DejaVuSans-61" x="655.240234"/>
      <use xlink:href="#DejaVuSans-6e" x="716.519531"/>
      <use xlink:href="#DejaVuSans-63" x="779.898438"/>
      <use xlink:href="#DejaVuSans-65" x="834.878906"/>
     </g>
    </g>
    <g id="line2d_21">
     <path d="M 275.372187 174.056875 
L 285.372187 174.056875 
L 295.372187 174.056875 
" style="fill: none; stroke: #2ca02c; stroke-opacity: 0.8; stroke-width: 1.5; stroke-linecap: square"/>
    </g>
    <g id="text_20">
     <!-- lognorm CDF -->
     <g transform="translate(303.372187 177.556875) scale(0.1 -0.1)">
      <use xlink:href="#DejaVuSans-6c"/>
      <use xlink:href="#DejaVuSans-6f" x="27.783203"/>
      <use xlink:href="#DejaVuSans-67" x="88.964844"/>
      <use xlink:href="#DejaVuSans-6e" x="152.441406"/>
      <use xlink:href="#DejaVuSans-6f" x="215.820312"/>
      <use xlink:href="#DejaVuSans-72" x="277.001953"/>
      <use xlink:href="#DejaVuSans-6d" x="316.365234"/>
      <use xlink:href="#DejaVuSans-20" x="413.777344"/>
      <use xlink:href="#DejaVuSans-43" x="445.564453"/>
      <use xlink:href="#DejaVuSans-44" x="515.388672"/>
      <use xlink:href="#DejaVuSans-46" x="592.390625"/>
     </g>
    </g>
    <g id="line2d_22">
     <path d="M 275.372187 188.735 
L 285.372187 188.735 
L 295.372187 188.735 
" style="fill: none; stroke-dasharray: 5.55,2.4; stroke-dashoffset: 0; stroke: #d62728; stroke-opacity: 0.8; stroke-width: 1.5"/>
    </g>
    <g id="text_21">
     <!-- lognorm Exceedance -->
     <g transform="translate(303.372187 192.235) scale(0.1 -0.1)">
      <use xlink:href="#DejaVuSans-6c"/>
      <use xlink:href="#DejaVuSans-6f" x="27.783203"/>
      <use xlink:href="#DejaVuSans-67" x="88.964844"/>
      <use xlink:href="#DejaVuSans-6e" x="152.441406"/>
      <use xlink:href="#DejaVuSans-6f" x="215.820312"/>
      <use xlink:href="#DejaVuSans-72" x="277.001953"/>
      <use xlink:href="#DejaVuSans-6d" x="316.365234"/>
      <use xlink:href="#DejaVuSans-20" x="413.777344"/>
      <use xlink:href="#DejaVuSans-45" x="445.564453"/>
      <use xlink:href="#DejaVuSans-78" x="508.748047"/>
      <use xlink:href="#DejaVuSans-63" x="566.177734"/>
      <use xlink:href="#DejaVuSans-65" x="621.158203"/>
      <use xlink:href="#DejaVuSans-65" x="682.681641"/>
      <use xlink:href="#DejaVuSans-64" x="744.205078"/>
      <use xlink:href="#DejaVuSans-61" x="807.681641"/>
      <use xlink:href="#DejaVuSans-6e" x="868.960938"/>
      <use xlink:href="#DejaVuSans-63" x="932.339844"/>
      <use xlink:href="#DejaVuSans-65" x="987.320312"/>
     </g>
    </g>
   </g>
  </g>
 </g>
 <defs>
  <clipPath id="p0f78bdacd3">
   <rect x="43.78125" y="20.798437" width="373.48" height="293.32"/>
  </clipPath>
 </defs>
</svg>
