<?xml version="1.0" encoding="utf-8" standalone="no"?>
<!DOCTYPE svg PUBLIC "-//W3C//DTD SVG 1.1//EN"
  "http://www.w3.org/Graphics/SVG/1.1/DTD/svg11.dtd">
<svg xmlns:xlink="http://www.w3.org/1999/xlink" width="1001.914375pt" height="282.391875pt" viewBox="0 0 1001.914375 282.391875" xmlns="http://www.w3.org/2000/svg" version="1.1">
 <metadata>
  <rdf:RDF xmlns:dc="http://purl.org/dc/elements/1.1/" xmlns:cc="http://creativecommons.org/ns#" xmlns:rdf="http://www.w3.org/1999/02/22-rdf-syntax-ns#">
   <cc:Work>
    <dc:type rdf:resource="http://purl.org/dc/dcmitype/StillImage"/>
    <dc:date>2025-12-18T12:58:27.804219</dc:date>
    <dc:format>image/svg+xml</dc:format>
    <dc:creator>
     <cc:Agent>
      <dc:title>Matplotlib v3.9.2, https://matplotlib.org/</dc:title>
     </cc:Agent>
    </dc:creator>
   </cc:Work>
  </rdf:RDF>
 </metadata>
 <defs>
  <style type="text/css">*{stroke-linejoin: round; stroke-linecap: butt}</style>
 </defs>
 <g id="figure_1">
  <g id="patch_1">
   <path d="M 0 282.391875 
L 1001.914375 282.391875 
L 1001.914375 0 
L 0 0 
z
" style="fill: #ffffff"/>
  </g>
  <g id="axes_1">
   <g id="patch_2">
    <path d="M 73.764375 235.1575 
L 336.387708 235.1575 
L 336.387708 25.3575 
L 73.764375 25.3575 
z
" style="fill: #ffffff"/>
   </g>
   <g id="patch_3">
    <path d="M 99.440156 235.1575 
L 120.567333 235.1575 
L 120.567333 88.533162 
L 99.440156 88.533162 
z
" clip-path="url(#pcb50dca7b9)" style="fill: #ffff00; stroke: #000000; stroke-linejoin: miter"/>
   </g>
   <g id="patch_4">
    <path d="M 120.567333 235.1575 
L 141.69451 235.1575 
L 141.69451 84.116348 
L 120.567333 84.116348 
z
" clip-path="url(#pcb50dca7b9)" style="fill: #ffff00; stroke: #000000; stroke-linejoin: miter"/>
   </g>
   <g id="patch_5">
    <path d="M 141.69451 235.1575 
L 162.821687 235.1575 
L 162.821687 76.569507 
L 141.69451 76.569507 
z
" clip-path="url(#pcb50dca7b9)" style="fill: #ffff00; stroke: #000000; stroke-linejoin: miter"/>
   </g>
   <g id="patch_6">
    <path d="M 162.821687 235.1575 
L 183.948865 235.1575 
L 183.948865 75.926113 
L 162.821687 75.926113 
z
" clip-path="url(#pcb50dca7b9)" style="fill: #ffff00; stroke: #000000; stroke-linejoin: miter"/>
   </g>
   <g id="patch_7">
    <path d="M 183.948865 235.1575 
L 205.076042 235.1575 
L 205.076042 131.43191 
L 183.948865 131.43191 
z
" clip-path="url(#pcb50dca7b9)" style="fill: #ffff00; stroke: #000000; stroke-linejoin: miter"/>
   </g>
   <g id="patch_8">
    <path d="M 205.076042 235.1575 
L 226.203219 235.1575 
L 226.203219 167.757603 
L 205.076042 167.757603 
z
" clip-path="url(#pcb50dca7b9)" style="fill: #ffff00; stroke: #000000; stroke-linejoin: miter"/>
   </g>
   <g id="patch_9">
    <path d="M 226.203219 235.1575 
L 247.330396 235.1575 
L 247.330396 192.450032 
L 226.203219 192.450032 
z
" clip-path="url(#pcb50dca7b9)" style="fill: #ffff00; stroke: #000000; stroke-linejoin: miter"/>
   </g>
   <g id="patch_10">
    <path d="M 247.330396 235.1575 
L 268.457573 235.1575 
L 268.457573 221.64622 
L 247.330396 221.64622 
z
" clip-path="url(#pcb50dca7b9)" style="fill: #ffff00; stroke: #000000; stroke-linejoin: miter"/>
   </g>
   <g id="patch_11">
    <path d="M 268.457573 235.1575 
L 289.58475 235.1575 
L 289.58475 230.340737 
L 268.457573 230.340737 
z
" clip-path="url(#pcb50dca7b9)" style="fill: #ffff00; stroke: #000000; stroke-linejoin: miter"/>
   </g>
   <g id="patch_12">
    <path d="M 289.58475 235.1575 
L 310.711927 235.1575 
L 310.711927 233.488153 
L 289.58475 233.488153 
z
" clip-path="url(#pcb50dca7b9)" style="fill: #ffff00; stroke: #000000; stroke-linejoin: miter"/>
   </g>
   <g id="matplotlib.axis_1">
    <g id="xtick_1">
     <g id="line2d_1">
      <defs>
       <path id="m6d02c79305" d="M 0 0 
L 0 3.5 
" style="stroke: #000000; stroke-width: 0.8"/>
      </defs>
      <g>
       <use xlink:href="#m6d02c79305" x="108.122558" y="235.1575" style="stroke: #000000; stroke-width: 0.8"/>
      </g>
     </g>
     <g id="text_1">
      <!-- 20 -->
      <g transform="translate(99.215058 252.795313) scale(0.14 -0.14)">
       <defs>
        <path id="DejaVuSans-32" d="M 1228 531 
L 3431 531 
L 3431 0 
L 469 0 
L 469 531 
Q 828 903 1448 1529 
Q 2069 2156 2228 2338 
Q 2531 2678 2651 2914 
Q 2772 3150 2772 3378 
Q 2772 3750 2511 3984 
Q 2250 4219 1831 4219 
Q 1534 4219 1204 4116 
Q 875 4013 500 3803 
L 500 4441 
Q 881 4594 1212 4672 
Q 1544 4750 1819 4750 
Q 2544 4750 2975 4387 
Q 3406 4025 3406 3419 
Q 3406 3131 3298 2873 
Q 3191 2616 2906 2266 
Q 2828 2175 2409 1742 
Q 1991 1309 1228 531 
z
" transform="scale(0.015625)"/>
        <path id="DejaVuSans-30" d="M 2034 4250 
Q 1547 4250 1301 3770 
Q 1056 3291 1056 2328 
Q 1056 1369 1301 889 
Q 1547 409 2034 409 
Q 2525 409 2770 889 
Q 3016 1369 3016 2328 
Q 3016 3291 2770 3770 
Q 2525 4250 2034 4250 
z
M 2034 4750 
Q 2819 4750 3233 4129 
Q 3647 3509 3647 2328 
Q 3647 1150 3233 529 
Q 2819 -91 2034 -91 
Q 1250 -91 836 529 
Q 422 1150 422 2328 
Q 422 3509 836 4129 
Q 1250 4750 2034 4750 
z
" transform="scale(0.015625)"/>
       </defs>
       <use xlink:href="#DejaVuSans-32"/>
       <use xlink:href="#DejaVuSans-30" x="63.623047"/>
      </g>
     </g>
    </g>
    <g id="xtick_2">
     <g id="line2d_2">
      <g>
       <use xlink:href="#m6d02c79305" x="166.005235" y="235.1575" style="stroke: #000000; stroke-width: 0.8"/>
      </g>
     </g>
     <g id="text_2">
      <!-- 40 -->
      <g transform="translate(157.097735 252.795313) scale(0.14 -0.14)">
       <defs>
        <path id="DejaVuSans-34" d="M 2419 4116 
L 825 1625 
L 2419 1625 
L 2419 4116 
z
M 2253 4666 
L 3047 4666 
L 3047 1625 
L 3713 1625 
L 3713 1100 
L 3047 1100 
L 3047 0 
L 2419 0 
L 2419 1100 
L 313 1100 
L 313 1709 
L 2253 4666 
z
" transform="scale(0.015625)"/>
       </defs>
       <use xlink:href="#DejaVuSans-34"/>
       <use xlink:href="#DejaVuSans-30" x="63.623047"/>
      </g>
     </g>
    </g>
    <g id="xtick_3">
     <g id="line2d_3">
      <g>
       <use xlink:href="#m6d02c79305" x="223.887912" y="235.1575" style="stroke: #000000; stroke-width: 0.8"/>
      </g>
     </g>
     <g id="text_3">
      <!-- 60 -->
      <g transform="translate(214.980412 252.795313) scale(0.14 -0.14)">
       <defs>
        <path id="DejaVuSans-36" d="M 2113 2584 
Q 1688 2584 1439 2293 
Q 1191 2003 1191 1497 
Q 1191 994 1439 701 
Q 1688 409 2113 409 
Q 2538 409 2786 701 
Q 3034 994 3034 1497 
Q 3034 2003 2786 2293 
Q 2538 2584 2113 2584 
z
M 3366 4563 
L 3366 3988 
Q 3128 4100 2886 4159 
Q 2644 4219 2406 4219 
Q 1781 4219 1451 3797 
Q 1122 3375 1075 2522 
Q 1259 2794 1537 2939 
Q 1816 3084 2150 3084 
Q 2853 3084 3261 2657 
Q 3669 2231 3669 1497 
Q 3669 778 3244 343 
Q 2819 -91 2113 -91 
Q 1303 -91 875 529 
Q 447 1150 447 2328 
Q 447 3434 972 4092 
Q 1497 4750 2381 4750 
Q 2619 4750 2861 4703 
Q 3103 4656 3366 4563 
z
" transform="scale(0.015625)"/>
       </defs>
       <use xlink:href="#DejaVuSans-36"/>
       <use xlink:href="#DejaVuSans-30" x="63.623047"/>
      </g>
     </g>
    </g>
    <g id="xtick_4">
     <g id="line2d_4">
      <g>
       <use xlink:href="#m6d02c79305" x="281.770589" y="235.1575" style="stroke: #000000; stroke-width: 0.8"/>
      </g>
     </g>
     <g id="text_4">
      <!-- 80 -->
      <g transform="translate(272.863089 252.795313) scale(0.14 -0.14)">
       <defs>
        <path id="DejaVuSans-38" d="M 2034 2216 
Q 1584 2216 1326 1975 
Q 1069 1734 1069 1313 
Q 1069 891 1326 650 
Q 1584 409 2034 409 
Q 2484 409 2743 651 
Q 3003 894 3003 1313 
Q 3003 1734 2745 1975 
Q 2488 2216 2034 2216 
z
M 1403 2484 
Q 997 2584 770 2862 
Q 544 3141 544 3541 
Q 544 4100 942 4425 
Q 1341 4750 2034 4750 
Q 2731 4750 3128 4425 
Q 3525 4100 3525 3541 
Q 3525 3141 3298 2862 
Q 3072 2584 2669 2484 
Q 3125 2378 3379 2068 
Q 3634 1759 3634 1313 
Q 3634 634 3220 271 
Q 2806 -91 2034 -91 
Q 1263 -91 848 271 
Q 434 634 434 1313 
Q 434 1759 690 2068 
Q 947 2378 1403 2484 
z
M 1172 3481 
Q 1172 3119 1398 2916 
Q 1625 2713 2034 2713 
Q 2441 2713 2670 2916 
Q 2900 3119 2900 3481 
Q 2900 3844 2670 4047 
Q 2441 4250 2034 4250 
Q 1625 4250 1398 4047 
Q 1172 3844 1172 3481 
z
" transform="scale(0.015625)"/>
       </defs>
       <use xlink:href="#DejaVuSans-38"/>
       <use xlink:href="#DejaVuSans-30" x="63.623047"/>
      </g>
     </g>
    </g>
    <g id="text_5">
     <!-- age -->
     <g transform="translate(190.172292 271.864375) scale(0.16 -0.16)">
      <defs>
       <path id="DejaVuSans-61" d="M 2194 1759 
Q 1497 1759 1228 1600 
Q 959 1441 959 1056 
Q 959 750 1161 570 
Q 1363 391 1709 391 
Q 2188 391 2477 730 
Q 2766 1069 2766 1631 
L 2766 1759 
L 2194 1759 
z
M 3341 1997 
L 3341 0 
L 2766 0 
L 2766 531 
Q 2569 213 2275 61 
Q 1981 -91 1556 -91 
Q 1019 -91 701 211 
Q 384 513 384 1019 
Q 384 1609 779 1909 
Q 1175 2209 1959 2209 
L 2766 2209 
L 2766 2266 
Q 2766 2663 2505 2880 
Q 2244 3097 1772 3097 
Q 1472 3097 1187 3025 
Q 903 2953 641 2809 
L 641 3341 
Q 956 3463 1253 3523 
Q 1550 3584 1831 3584 
Q 2591 3584 2966 3190 
Q 3341 2797 3341 1997 
z
" transform="scale(0.015625)"/>
       <path id="DejaVuSans-67" d="M 2906 1791 
Q 2906 2416 2648 2759 
Q 2391 3103 1925 3103 
Q 1463 3103 1205 2759 
Q 947 2416 947 1791 
Q 947 1169 1205 825 
Q 1463 481 1925 481 
Q 2391 481 2648 825 
Q 2906 1169 2906 1791 
z
M 3481 434 
Q 3481 -459 3084 -895 
Q 2688 -1331 1869 -1331 
Q 1566 -1331 1297 -1286 
Q 1028 -1241 775 -1147 
L 775 -588 
Q 1028 -725 1275 -790 
Q 1522 -856 1778 -856 
Q 2344 -856 2625 -561 
Q 2906 -266 2906 331 
L 2906 616 
Q 2728 306 2450 153 
Q 2172 0 1784 0 
Q 1141 0 747 490 
Q 353 981 353 1791 
Q 353 2603 747 3093 
Q 1141 3584 1784 3584 
Q 2172 3584 2450 3431 
Q 2728 3278 2906 2969 
L 2906 3500 
L 3481 3500 
L 3481 434 
z
" transform="scale(0.015625)"/>
       <path id="DejaVuSans-65" d="M 3597 1894 
L 3597 1613 
L 953 1613 
Q 991 1019 1311 708 
Q 1631 397 2203 397 
Q 2534 397 2845 478 
Q 3156 559 3463 722 
L 3463 178 
Q 3153 47 2828 -22 
Q 2503 -91 2169 -91 
Q 1331 -91 842 396 
Q 353 884 353 1716 
Q 353 2575 817 3079 
Q 1281 3584 2069 3584 
Q 2775 3584 3186 3129 
Q 3597 2675 3597 1894 
z
M 3022 2063 
Q 3016 2534 2758 2815 
Q 2500 3097 2075 3097 
Q 1594 3097 1305 2825 
Q 1016 2553 972 2059 
L 3022 2063 
z
" transform="scale(0.015625)"/>
      </defs>
      <use xlink:href="#DejaVuSans-61"/>
      <use xlink:href="#DejaVuSans-67" x="61.279297"/>
      <use xlink:href="#DejaVuSans-65" x="124.755859"/>
     </g>
    </g>
   </g>
   <g id="matplotlib.axis_2">
    <g id="ytick_1">
     <g id="line2d_5">
      <defs>
       <path id="mdfe366fed0" d="M 0 0 
L -3.5 0 
" style="stroke: #000000; stroke-width: 0.8"/>
      </defs>
      <g>
       <use xlink:href="#mdfe366fed0" x="73.764375" y="235.1575" style="stroke: #000000; stroke-width: 0.8"/>
      </g>
     </g>
     <g id="text_6">
      <!-- 0.000 -->
      <g transform="translate(26.685 240.476406) scale(0.14 -0.14)">
       <defs>
        <path id="DejaVuSans-2e" d="M 684 794 
L 1344 794 
L 1344 0 
L 684 0 
L 684 794 
z
" transform="scale(0.015625)"/>
       </defs>
       <use xlink:href="#DejaVuSans-30"/>
       <use xlink:href="#DejaVuSans-2e" x="63.623047"/>
       <use xlink:href="#DejaVuSans-30" x="95.410156"/>
       <use xlink:href="#DejaVuSans-30" x="159.033203"/>
       <use xlink:href="#DejaVuSans-30" x="222.65625"/>
      </g>
     </g>
    </g>
    <g id="ytick_2">
     <g id="line2d_6">
      <g>
       <use xlink:href="#mdfe366fed0" x="73.764375" y="204.157495" style="stroke: #000000; stroke-width: 0.8"/>
      </g>
     </g>
     <g id="text_7">
      <!-- 0.005 -->
      <g transform="translate(26.685 209.476401) scale(0.14 -0.14)">
       <defs>
        <path id="DejaVuSans-35" d="M 691 4666 
L 3169 4666 
L 3169 4134 
L 1269 4134 
L 1269 2991 
Q 1406 3038 1543 3061 
Q 1681 3084 1819 3084 
Q 2600 3084 3056 2656 
Q 3513 2228 3513 1497 
Q 3513 744 3044 326 
Q 2575 -91 1722 -91 
Q 1428 -91 1123 -41 
Q 819 9 494 109 
L 494 744 
Q 775 591 1075 516 
Q 1375 441 1709 441 
Q 2250 441 2565 725 
Q 2881 1009 2881 1497 
Q 2881 1984 2565 2268 
Q 2250 2553 1709 2553 
Q 1456 2553 1204 2497 
Q 953 2441 691 2322 
L 691 4666 
z
" transform="scale(0.015625)"/>
       </defs>
       <use xlink:href="#DejaVuSans-30"/>
       <use xlink:href="#DejaVuSans-2e" x="63.623047"/>
       <use xlink:href="#DejaVuSans-30" x="95.410156"/>
       <use xlink:href="#DejaVuSans-30" x="159.033203"/>
       <use xlink:href="#DejaVuSans-35" x="222.65625"/>
      </g>
     </g>
    </g>
    <g id="ytick_3">
     <g id="line2d_7">
      <g>
       <use xlink:href="#mdfe366fed0" x="73.764375" y="173.157489" style="stroke: #000000; stroke-width: 0.8"/>
      </g>
     </g>
     <g id="text_8">
      <!-- 0.010 -->
      <g transform="translate(26.685 178.476396) scale(0.14 -0.14)">
       <defs>
        <path id="DejaVuSans-31" d="M 794 531 
L 1825 531 
L 1825 4091 
L 703 3866 
L 703 4441 
L 1819 4666 
L 2450 4666 
L 2450 531 
L 3481 531 
L 3481 0 
L 794 0 
L 794 531 
z
" transform="scale(0.015625)"/>
       </defs>
       <use xlink:href="#DejaVuSans-30"/>
       <use xlink:href="#DejaVuSans-2e" x="63.623047"/>
       <use xlink:href="#DejaVuSans-30" x="95.410156"/>
       <use xlink:href="#DejaVuSans-31" x="159.033203"/>
       <use xlink:href="#DejaVuSans-30" x="222.65625"/>
      </g>
     </g>
    </g>
    <g id="ytick_4">
     <g id="line2d_8">
      <g>
       <use xlink:href="#mdfe366fed0" x="73.764375" y="142.157484" style="stroke: #000000; stroke-width: 0.8"/>
      </g>
     </g>
     <g id="text_9">
      <!-- 0.015 -->
      <g transform="translate(26.685 147.47639) scale(0.14 -0.14)">
       <use xlink:href="#DejaVuSans-30"/>
       <use xlink:href="#DejaVuSans-2e" x="63.623047"/>
       <use xlink:href="#DejaVuSans-30" x="95.410156"/>
       <use xlink:href="#DejaVuSans-31" x="159.033203"/>
       <use xlink:href="#DejaVuSans-35" x="222.65625"/>
      </g>
     </g>
    </g>
    <g id="ytick_5">
     <g id="line2d_9">
      <g>
       <use xlink:href="#mdfe366fed0" x="73.764375" y="111.157479" style="stroke: #000000; stroke-width: 0.8"/>
      </g>
     </g>
     <g id="text_10">
      <!-- 0.020 -->
      <g transform="translate(26.685 116.476385) scale(0.14 -0.14)">
       <use xlink:href="#DejaVuSans-30"/>
       <use xlink:href="#DejaVuSans-2e" x="63.623047"/>
       <use xlink:href="#DejaVuSans-30" x="95.410156"/>
       <use xlink:href="#DejaVuSans-32" x="159.033203"/>
       <use xlink:href="#DejaVuSans-30" x="222.65625"/>
      </g>
     </g>
    </g>
    <g id="ytick_6">
     <g id="line2d_10">
      <g>
       <use xlink:href="#mdfe366fed0" x="73.764375" y="80.157473" style="stroke: #000000; stroke-width: 0.8"/>
      </g>
     </g>
     <g id="text_11">
      <!-- 0.025 -->
      <g transform="translate(26.685 85.476379) scale(0.14 -0.14)">
       <use xlink:href="#DejaVuSans-30"/>
       <use xlink:href="#DejaVuSans-2e" x="63.623047"/>
       <use xlink:href="#DejaVuSans-30" x="95.410156"/>
       <use xlink:href="#DejaVuSans-32" x="159.033203"/>
       <use xlink:href="#DejaVuSans-35" x="222.65625"/>
      </g>
     </g>
    </g>
    <g id="ytick_7">
     <g id="line2d_11">
      <g>
       <use xlink:href="#mdfe366fed0" x="73.764375" y="49.157468" style="stroke: #000000; stroke-width: 0.8"/>
      </g>
     </g>
     <g id="text_12">
      <!-- 0.030 -->
      <g transform="translate(26.685 54.476374) scale(0.14 -0.14)">
       <defs>
        <path id="DejaVuSans-33" d="M 2597 2516 
Q 3050 2419 3304 2112 
Q 3559 1806 3559 1356 
Q 3559 666 3084 287 
Q 2609 -91 1734 -91 
Q 1441 -91 1130 -33 
Q 819 25 488 141 
L 488 750 
Q 750 597 1062 519 
Q 1375 441 1716 441 
Q 2309 441 2620 675 
Q 2931 909 2931 1356 
Q 2931 1769 2642 2001 
Q 2353 2234 1838 2234 
L 1294 2234 
L 1294 2753 
L 1863 2753 
Q 2328 2753 2575 2939 
Q 2822 3125 2822 3475 
Q 2822 3834 2567 4026 
Q 2313 4219 1838 4219 
Q 1578 4219 1281 4162 
Q 984 4106 628 3988 
L 628 4550 
Q 988 4650 1302 4700 
Q 1616 4750 1894 4750 
Q 2613 4750 3031 4423 
Q 3450 4097 3450 3541 
Q 3450 3153 3228 2886 
Q 3006 2619 2597 2516 
z
" transform="scale(0.015625)"/>
       </defs>
       <use xlink:href="#DejaVuSans-30"/>
       <use xlink:href="#DejaVuSans-2e" x="63.623047"/>
       <use xlink:href="#DejaVuSans-30" x="95.410156"/>
       <use xlink:href="#DejaVuSans-33" x="159.033203"/>
       <use xlink:href="#DejaVuSans-30" x="222.65625"/>
      </g>
     </g>
    </g>
    <g id="text_13">
     <!-- Density -->
     <g transform="translate(19.3575 160.67125) rotate(-90) scale(0.16 -0.16)">
      <defs>
       <path id="DejaVuSans-44" d="M 1259 4147 
L 1259 519 
L 2022 519 
Q 2988 519 3436 956 
Q 3884 1394 3884 2338 
Q 3884 3275 3436 3711 
Q 2988 4147 2022 4147 
L 1259 4147 
z
M 628 4666 
L 1925 4666 
Q 3281 4666 3915 4102 
Q 4550 3538 4550 2338 
Q 4550 1131 3912 565 
Q 3275 0 1925 0 
L 628 0 
L 628 4666 
z
" transform="scale(0.015625)"/>
       <path id="DejaVuSans-6e" d="M 3513 2113 
L 3513 0 
L 2938 0 
L 2938 2094 
Q 2938 2591 2744 2837 
Q 2550 3084 2163 3084 
Q 1697 3084 1428 2787 
Q 1159 2491 1159 1978 
L 1159 0 
L 581 0 
L 581 3500 
L 1159 3500 
L 1159 2956 
Q 1366 3272 1645 3428 
Q 1925 3584 2291 3584 
Q 2894 3584 3203 3211 
Q 3513 2838 3513 2113 
z
" transform="scale(0.015625)"/>
       <path id="DejaVuSans-73" d="M 2834 3397 
L 2834 2853 
Q 2591 2978 2328 3040 
Q 2066 3103 1784 3103 
Q 1356 3103 1142 2972 
Q 928 2841 928 2578 
Q 928 2378 1081 2264 
Q 1234 2150 1697 2047 
L 1894 2003 
Q 2506 1872 2764 1633 
Q 3022 1394 3022 966 
Q 3022 478 2636 193 
Q 2250 -91 1575 -91 
Q 1294 -91 989 -36 
Q 684 19 347 128 
L 347 722 
Q 666 556 975 473 
Q 1284 391 1588 391 
Q 1994 391 2212 530 
Q 2431 669 2431 922 
Q 2431 1156 2273 1281 
Q 2116 1406 1581 1522 
L 1381 1569 
Q 847 1681 609 1914 
Q 372 2147 372 2553 
Q 372 3047 722 3315 
Q 1072 3584 1716 3584 
Q 2034 3584 2315 3537 
Q 2597 3491 2834 3397 
z
" transform="scale(0.015625)"/>
       <path id="DejaVuSans-69" d="M 603 3500 
L 1178 3500 
L 1178 0 
L 603 0 
L 603 3500 
z
M 603 4863 
L 1178 4863 
L 1178 4134 
L 603 4134 
L 603 4863 
z
" transform="scale(0.015625)"/>
       <path id="DejaVuSans-74" d="M 1172 4494 
L 1172 3500 
L 2356 3500 
L 2356 3053 
L 1172 3053 
L 1172 1153 
Q 1172 725 1289 603 
Q 1406 481 1766 481 
L 2356 481 
L 2356 0 
L 1766 0 
Q 1100 0 847 248 
Q 594 497 594 1153 
L 594 3053 
L 172 3053 
L 172 3500 
L 594 3500 
L 594 4494 
L 1172 4494 
z
" transform="scale(0.015625)"/>
       <path id="DejaVuSans-79" d="M 2059 -325 
Q 1816 -950 1584 -1140 
Q 1353 -1331 966 -1331 
L 506 -1331 
L 506 -850 
L 844 -850 
Q 1081 -850 1212 -737 
Q 1344 -625 1503 -206 
L 1606 56 
L 191 3500 
L 800 3500 
L 1894 763 
L 2988 3500 
L 3597 3500 
L 2059 -325 
z
" transform="scale(0.015625)"/>
      </defs>
      <use xlink:href="#DejaVuSans-44"/>
      <use xlink:href="#DejaVuSans-65" x="77.001953"/>
      <use xlink:href="#DejaVuSans-6e" x="138.525391"/>
      <use xlink:href="#DejaVuSans-73" x="201.904297"/>
      <use xlink:href="#DejaVuSans-69" x="254.003906"/>
      <use xlink:href="#DejaVuSans-74" x="281.787109"/>
      <use xlink:href="#DejaVuSans-79" x="320.996094"/>
     </g>
    </g>
   </g>
   <g id="line2d_12">
    <path d="M 85.701799 234.904231 
L 86.90154 234.60258 
L 88.101282 234.015476 
L 89.301023 232.947483 
L 90.500764 231.130726 
L 91.700505 228.23879 
L 92.900246 223.927539 
L 94.099987 217.902171 
L 95.299728 209.997746 
L 96.499469 200.249682 
L 97.699211 188.927997 
L 102.498175 139.114595 
L 103.697916 128.48081 
L 104.897657 119.317397 
L 106.097398 111.66198 
L 107.29714 105.389579 
L 108.496881 100.271422 
L 109.696622 96.042693 
L 110.896363 92.466057 
L 112.096104 89.378484 
L 113.295845 86.711263 
L 114.495586 84.478891 
L 115.695327 82.74144 
L 116.895069 81.553922 
L 118.09481 80.920764 
L 119.294551 80.77106 
L 120.494292 80.96177 
L 122.893774 81.611478 
L 124.093515 81.725941 
L 125.293257 81.559779 
L 126.492998 81.097246 
L 127.692739 80.385042 
L 130.092221 78.553231 
L 133.691444 75.796253 
L 137.290668 73.407128 
L 139.69015 72.042829 
L 143.289373 70.346518 
L 146.888597 68.817954 
L 149.288079 68.073243 
L 150.48782 67.91943 
L 151.687561 67.984687 
L 152.887303 68.314331 
L 154.087044 68.934309 
L 155.286785 69.843641 
L 156.486526 71.011535 
L 158.886008 73.87375 
L 162.485232 78.312225 
L 164.884714 80.772205 
L 168.483937 84.205227 
L 170.883419 87.027764 
L 175.682384 93.339813 
L 178.081866 95.790504 
L 180.481349 98.014397 
L 181.68109 99.378201 
L 182.880831 101.105648 
L 184.080572 103.286232 
L 185.280313 105.924673 
L 187.679795 112.132953 
L 190.079278 118.312788 
L 191.279019 120.973697 
L 192.47876 123.280853 
L 194.878242 127.192207 
L 197.277724 131.185079 
L 198.477465 133.518583 
L 200.876948 138.930368 
L 204.476171 147.66037 
L 206.875653 152.810372 
L 208.075394 155.037692 
L 209.275136 157.027979 
L 211.674618 160.376545 
L 214.0741 163.108354 
L 217.673324 166.915922 
L 220.072806 169.85651 
L 222.472288 173.301172 
L 226.071511 179.084835 
L 233.269958 190.922824 
L 239.268664 200.097966 
L 244.067628 207.087714 
L 247.666852 211.947407 
L 250.066334 214.742098 
L 252.465816 216.986789 
L 254.865299 218.69787 
L 258.464522 220.720649 
L 263.263486 223.423703 
L 266.86271 225.415062 
L 271.661674 227.77075 
L 275.260898 229.336041 
L 277.66038 230.120014 
L 281.259603 230.908911 
L 284.858827 231.699294 
L 292.057274 233.564548 
L 295.656497 234.172248 
L 298.055979 234.41746 
L 300.455461 234.48165 
L 302.854944 234.311154 
L 306.454167 233.681887 
L 308.853649 233.301019 
L 310.053391 233.231167 
L 312.452873 233.423858 
L 316.052096 234.241976 
L 318.451578 234.728566 
L 320.851061 235.004164 
L 324.450284 235.137836 
L 324.450284 235.137836 
" clip-path="url(#pcb50dca7b9)" style="fill: none; stroke: #0000ff; stroke-width: 1.5; stroke-linecap: square"/>
   </g>
   <g id="line2d_13">
    <path d="M 99.440156 183.264745 
L 102.827279 175.994855 
L 106.214401 168.196197 
L 110.024914 158.854848 
L 114.258817 147.888549 
L 120.186282 131.833548 
L 130.77104 103.008877 
L 135.004943 92.217343 
L 138.392066 84.195571 
L 141.355798 77.751762 
L 143.89614 72.732831 
L 146.436482 68.239426 
L 148.553433 64.933909 
L 150.670385 62.056339 
L 152.363946 60.078466 
L 154.057508 58.400278 
L 155.751069 57.030786 
L 157.44463 55.977384 
L 159.138192 55.245789 
L 160.408363 54.910741 
L 161.678534 54.760012 
L 162.948704 54.794068 
L 164.218875 55.012802 
L 165.489046 55.415544 
L 166.759217 56.001058 
L 168.452779 57.062877 
L 170.14634 58.440614 
L 171.839901 60.126829 
L 173.533463 62.11247 
L 175.650414 64.999328 
L 177.767366 68.313595 
L 179.884317 72.02829 
L 182.424659 76.972362 
L 184.965001 82.39401 
L 187.928734 89.242707 
L 191.315856 97.637277 
L 195.549759 108.756505 
L 202.324005 127.292633 
L 209.94503 148.006923 
L 214.602324 160.031754 
L 218.412837 169.303662 
L 221.799959 177.031896 
L 225.187082 184.225665 
L 228.150814 190.056359 
L 231.114547 195.44174 
L 234.078279 200.378637 
L 237.042011 204.871283 
L 240.005743 208.930306 
L 242.969476 212.571684 
L 245.933208 215.815701 
L 248.89694 218.685925 
L 251.860672 221.208261 
L 254.824405 223.410065 
L 257.788137 225.319365 
L 260.751869 226.964186 
L 263.715601 228.371973 
L 267.102724 229.724443 
L 270.489847 230.838926 
L 274.30036 231.85083 
L 278.534263 232.726076 
L 283.191556 233.446434 
L 288.27224 234.009408 
L 294.623095 234.476179 
L 302.244121 234.805359 
L 310.711927 234.995527 
L 310.711927 234.995527 
" clip-path="url(#pcb50dca7b9)" style="fill: none; stroke: #000000; stroke-width: 1.5; stroke-linecap: square"/>
   </g>
   <g id="line2d_14">
    <path d="M 99.440156 189.216789 
L 101.980498 178.10582 
L 104.94423 164.010181 
L 109.178133 142.537825 
L 116.375769 105.814416 
L 119.339501 91.789463 
L 121.879843 80.684836 
L 124.420185 70.609563 
L 126.537137 63.096905 
L 128.654088 56.448336 
L 130.34765 51.777816 
L 132.041211 47.696619 
L 133.734772 44.209799 
L 135.428333 41.316391 
L 136.698504 39.532086 
L 137.968675 38.073522 
L 139.238846 36.934759 
L 140.509017 36.108598 
L 141.779188 35.586714 
L 143.049359 35.3598 
L 144.31953 35.417693 
L 145.589701 35.749504 
L 146.859872 36.34374 
L 148.130043 37.188418 
L 149.400214 38.271171 
L 151.093775 40.063293 
L 152.787337 42.225702 
L 154.480898 44.727707 
L 156.59785 48.286179 
L 158.714801 52.268569 
L 161.255143 57.526464 
L 164.218875 64.201883 
L 167.605998 72.373266 
L 172.263292 84.220875 
L 187.928734 124.605845 
L 192.586027 135.758426 
L 196.81993 145.317876 
L 200.630443 153.399745 
L 204.440956 160.962926 
L 208.251469 167.998303 
L 211.638592 173.810381 
L 215.025714 179.21435 
L 218.412837 184.221831 
L 221.799959 188.847659 
L 225.187082 193.109005 
L 228.574205 197.024625 
L 231.961327 200.614252 
L 235.34845 203.898087 
L 238.735572 206.896392 
L 242.546085 209.953084 
L 246.356598 212.701419 
L 250.167111 215.167972 
L 253.977624 217.37796 
L 258.211527 219.561378 
L 262.445431 221.487518 
L 267.102724 223.342197 
L 271.760018 224.952717 
L 276.840702 226.466543 
L 282.344776 227.859299 
L 288.27224 229.114624 
L 294.623095 230.223901 
L 301.39734 231.185525 
L 309.018366 232.04633 
L 310.711927 232.210791 
L 310.711927 232.210791 
" clip-path="url(#pcb50dca7b9)" style="fill: none; stroke: #ff0000; stroke-width: 1.5; stroke-linecap: square"/>
   </g>
   <g id="patch_13">
    <path d="M 73.764375 235.1575 
L 73.764375 25.3575 
" style="fill: none; stroke: #000000; stroke-width: 0.8; stroke-linejoin: miter; stroke-linecap: square"/>
   </g>
   <g id="patch_14">
    <path d="M 336.387708 235.1575 
L 336.387708 25.3575 
" style="fill: none; stroke: #000000; stroke-width: 0.8; stroke-linejoin: miter; stroke-linecap: square"/>
   </g>
   <g id="patch_15">
    <path d="M 73.764375 235.1575 
L 336.387708 235.1575 
" style="fill: none; stroke: #000000; stroke-width: 0.8; stroke-linejoin: miter; stroke-linecap: square"/>
   </g>
   <g id="patch_16">
    <path d="M 73.764375 25.3575 
L 336.387708 25.3575 
" style="fill: none; stroke: #000000; stroke-width: 0.8; stroke-linejoin: miter; stroke-linecap: square"/>
   </g>
   <g id="text_14">
    <!-- Distribution of age -->
    <g transform="translate(130.706042 19.3575) scale(0.16 -0.16)">
     <defs>
      <path id="DejaVuSans-72" d="M 2631 2963 
Q 2534 3019 2420 3045 
Q 2306 3072 2169 3072 
Q 1681 3072 1420 2755 
Q 1159 2438 1159 1844 
L 1159 0 
L 581 0 
L 581 3500 
L 1159 3500 
L 1159 2956 
Q 1341 3275 1631 3429 
Q 1922 3584 2338 3584 
Q 2397 3584 2469 3576 
Q 2541 3569 2628 3553 
L 2631 2963 
z
" transform="scale(0.015625)"/>
      <path id="DejaVuSans-62" d="M 3116 1747 
Q 3116 2381 2855 2742 
Q 2594 3103 2138 3103 
Q 1681 3103 1420 2742 
Q 1159 2381 1159 1747 
Q 1159 1113 1420 752 
Q 1681 391 2138 391 
Q 2594 391 2855 752 
Q 3116 1113 3116 1747 
z
M 1159 2969 
Q 1341 3281 1617 3432 
Q 1894 3584 2278 3584 
Q 2916 3584 3314 3078 
Q 3713 2572 3713 1747 
Q 3713 922 3314 415 
Q 2916 -91 2278 -91 
Q 1894 -91 1617 61 
Q 1341 213 1159 525 
L 1159 0 
L 581 0 
L 581 4863 
L 1159 4863 
L 1159 2969 
z
" transform="scale(0.015625)"/>
      <path id="DejaVuSans-75" d="M 544 1381 
L 544 3500 
L 1119 3500 
L 1119 1403 
Q 1119 906 1312 657 
Q 1506 409 1894 409 
Q 2359 409 2629 706 
Q 2900 1003 2900 1516 
L 2900 3500 
L 3475 3500 
L 3475 0 
L 2900 0 
L 2900 538 
Q 2691 219 2414 64 
Q 2138 -91 1772 -91 
Q 1169 -91 856 284 
Q 544 659 544 1381 
z
M 1991 3584 
L 1991 3584 
z
" transform="scale(0.015625)"/>
      <path id="DejaVuSans-6f" d="M 1959 3097 
Q 1497 3097 1228 2736 
Q 959 2375 959 1747 
Q 959 1119 1226 758 
Q 1494 397 1959 397 
Q 2419 397 2687 759 
Q 2956 1122 2956 1747 
Q 2956 2369 2687 2733 
Q 2419 3097 1959 3097 
z
M 1959 3584 
Q 2709 3584 3137 3096 
Q 3566 2609 3566 1747 
Q 3566 888 3137 398 
Q 2709 -91 1959 -91 
Q 1206 -91 779 398 
Q 353 888 353 1747 
Q 353 2609 779 3096 
Q 1206 3584 1959 3584 
z
" transform="scale(0.015625)"/>
      <path id="DejaVuSans-20" transform="scale(0.015625)"/>
      <path id="DejaVuSans-66" d="M 2375 4863 
L 2375 4384 
L 1825 4384 
Q 1516 4384 1395 4259 
Q 1275 4134 1275 3809 
L 1275 3500 
L 2222 3500 
L 2222 3053 
L 1275 3053 
L 1275 0 
L 697 0 
L 697 3053 
L 147 3053 
L 147 3500 
L 697 3500 
L 697 3744 
Q 697 4328 969 4595 
Q 1241 4863 1831 4863 
L 2375 4863 
z
" transform="scale(0.015625)"/>
     </defs>
     <use xlink:href="#DejaVuSans-44"/>
     <use xlink:href="#DejaVuSans-69" x="77.001953"/>
     <use xlink:href="#DejaVuSans-73" x="104.785156"/>
     <use xlink:href="#DejaVuSans-74" x="156.884766"/>
     <use xlink:href="#DejaVuSans-72" x="196.09375"/>
     <use xlink:href="#DejaVuSans-69" x="237.207031"/>
     <use xlink:href="#DejaVuSans-62" x="264.990234"/>
     <use xlink:href="#DejaVuSans-75" x="328.466797"/>
     <use xlink:href="#DejaVuSans-74" x="391.845703"/>
     <use xlink:href="#DejaVuSans-69" x="431.054688"/>
     <use xlink:href="#DejaVuSans-6f" x="458.837891"/>
     <use xlink:href="#DejaVuSans-6e" x="520.019531"/>
     <use xlink:href="#DejaVuSans-20" x="583.398438"/>
     <use xlink:href="#DejaVuSans-6f" x="615.185547"/>
     <use xlink:href="#DejaVuSans-66" x="676.367188"/>
     <use xlink:href="#DejaVuSans-20" x="711.572266"/>
     <use xlink:href="#DejaVuSans-61" x="743.359375"/>
     <use xlink:href="#DejaVuSans-67" x="804.638672"/>
     <use xlink:href="#DejaVuSans-65" x="868.115234"/>
    </g>
   </g>
   <g id="legend_1">
    <g id="patch_17">
     <path d="M 256.009583 77.391875 
L 329.387708 77.391875 
Q 331.387708 77.391875 331.387708 75.391875 
L 331.387708 32.3575 
Q 331.387708 30.3575 329.387708 30.3575 
L 256.009583 30.3575 
Q 254.009583 30.3575 254.009583 32.3575 
L 254.009583 75.391875 
Q 254.009583 77.391875 256.009583 77.391875 
z
" style="fill: #ffffff; opacity: 0.8; stroke: #cccccc; stroke-linejoin: miter"/>
    </g>
    <g id="line2d_15">
     <path d="M 258.009583 38.455938 
L 268.009583 38.455938 
L 278.009583 38.455938 
" style="fill: none; stroke: #0000ff; stroke-width: 1.5; stroke-linecap: square"/>
    </g>
    <g id="text_15">
     <!-- kde -->
     <g transform="translate(286.009583 41.955938) scale(0.1 -0.1)">
      <defs>
       <path id="DejaVuSans-6b" d="M 581 4863 
L 1159 4863 
L 1159 1991 
L 2875 3500 
L 3609 3500 
L 1753 1863 
L 3688 0 
L 2938 0 
L 1159 1709 
L 1159 0 
L 581 0 
L 581 4863 
z
" transform="scale(0.015625)"/>
       <path id="DejaVuSans-64" d="M 2906 2969 
L 2906 4863 
L 3481 4863 
L 3481 0 
L 2906 0 
L 2906 525 
Q 2725 213 2448 61 
Q 2172 -91 1784 -91 
Q 1150 -91 751 415 
Q 353 922 353 1747 
Q 353 2572 751 3078 
Q 1150 3584 1784 3584 
Q 2172 3584 2448 3432 
Q 2725 3281 2906 2969 
z
M 947 1747 
Q 947 1113 1208 752 
Q 1469 391 1925 391 
Q 2381 391 2643 752 
Q 2906 1113 2906 1747 
Q 2906 2381 2643 2742 
Q 2381 3103 1925 3103 
Q 1469 3103 1208 2742 
Q 947 2381 947 1747 
z
" transform="scale(0.015625)"/>
      </defs>
      <use xlink:href="#DejaVuSans-6b"/>
      <use xlink:href="#DejaVuSans-64" x="57.910156"/>
      <use xlink:href="#DejaVuSans-65" x="121.386719"/>
     </g>
    </g>
    <g id="line2d_16">
     <path d="M 258.009583 53.134063 
L 268.009583 53.134063 
L 278.009583 53.134063 
" style="fill: none; stroke: #000000; stroke-width: 1.5; stroke-linecap: square"/>
    </g>
    <g id="text_16">
     <!-- norm -->
     <g transform="translate(286.009583 56.634063) scale(0.1 -0.1)">
      <defs>
       <path id="DejaVuSans-6d" d="M 3328 2828 
Q 3544 3216 3844 3400 
Q 4144 3584 4550 3584 
Q 5097 3584 5394 3201 
Q 5691 2819 5691 2113 
L 5691 0 
L 5113 0 
L 5113 2094 
Q 5113 2597 4934 2840 
Q 4756 3084 4391 3084 
Q 3944 3084 3684 2787 
Q 3425 2491 3425 1978 
L 3425 0 
L 2847 0 
L 2847 2094 
Q 2847 2600 2669 2842 
Q 2491 3084 2119 3084 
Q 1678 3084 1418 2786 
Q 1159 2488 1159 1978 
L 1159 0 
L 581 0 
L 581 3500 
L 1159 3500 
L 1159 2956 
Q 1356 3278 1631 3431 
Q 1906 3584 2284 3584 
Q 2666 3584 2933 3390 
Q 3200 3197 3328 2828 
z
" transform="scale(0.015625)"/>
      </defs>
      <use xlink:href="#DejaVuSans-6e"/>
      <use xlink:href="#DejaVuSans-6f" x="63.378906"/>
      <use xlink:href="#DejaVuSans-72" x="124.560547"/>
      <use xlink:href="#DejaVuSans-6d" x="163.923828"/>
     </g>
    </g>
    <g id="line2d_17">
     <path d="M 258.009583 67.812188 
L 268.009583 67.812188 
L 278.009583 67.812188 
" style="fill: none; stroke: #ff0000; stroke-width: 1.5; stroke-linecap: square"/>
    </g>
    <g id="text_17">
     <!-- lognorm -->
     <g transform="translate(286.009583 71.312188) scale(0.1 -0.1)">
      <defs>
       <path id="DejaVuSans-6c" d="M 603 4863 
L 1178 4863 
L 1178 0 
L 603 0 
L 603 4863 
z
" transform="scale(0.015625)"/>
      </defs>
      <use xlink:href="#DejaVuSans-6c"/>
      <use xlink:href="#DejaVuSans-6f" x="27.783203"/>
      <use xlink:href="#DejaVuSans-67" x="88.964844"/>
      <use xlink:href="#DejaVuSans-6e" x="152.441406"/>
      <use xlink:href="#DejaVuSans-6f" x="215.820312"/>
      <use xlink:href="#DejaVuSans-72" x="277.001953"/>
      <use xlink:href="#DejaVuSans-6d" x="316.365234"/>
     </g>
    </g>
   </g>
  </g>
  <g id="axes_2">
   <g id="patch_18">
    <path d="M 402.927708 235.1575 
L 665.551042 235.1575 
L 665.551042 25.3575 
L 402.927708 25.3575 
z
" style="fill: #ffffff"/>
   </g>
   <g id="patch_19">
    <path d="M 427.530018 235.1575 
L 448.87189 235.1575 
L 448.87189 233.074368 
L 427.530018 233.074368 
z
" clip-path="url(#pd61bbb0484)" style="fill: #ffff00; stroke: #000000; stroke-linejoin: miter"/>
   </g>
   <g id="patch_20">
    <path d="M 448.87189 235.1575 
L 470.213761 235.1575 
L 470.213761 231.944427 
L 448.87189 231.944427 
z
" clip-path="url(#pd61bbb0484)" style="fill: #ffff00; stroke: #000000; stroke-linejoin: miter"/>
   </g>
   <g id="patch_21">
    <path d="M 470.213761 235.1575 
L 491.555632 235.1575 
L 491.555632 224.356777 
L 470.213761 224.356777 
z
" clip-path="url(#pd61bbb0484)" style="fill: #ffff00; stroke: #000000; stroke-linejoin: miter"/>
   </g>
   <g id="patch_22">
    <path d="M 491.555632 235.1575 
L 512.897504 235.1575 
L 512.897504 226.389409 
L 491.555632 226.389409 
z
" clip-path="url(#pd61bbb0484)" style="fill: #ffff00; stroke: #000000; stroke-linejoin: miter"/>
   </g>
   <g id="patch_23">
    <path d="M 512.897504 235.1575 
L 534.239375 235.1575 
L 534.239375 219.571886 
L 512.897504 219.571886 
z
" clip-path="url(#pd61bbb0484)" style="fill: #ffff00; stroke: #000000; stroke-linejoin: miter"/>
   </g>
   <g id="patch_24">
    <path d="M 534.239375 235.1575 
L 555.581246 235.1575 
L 555.581246 135.520672 
L 534.239375 135.520672 
z
" clip-path="url(#pd61bbb0484)" style="fill: #ffff00; stroke: #000000; stroke-linejoin: miter"/>
   </g>
   <g id="patch_25">
    <path d="M 555.581246 235.1575 
L 576.923118 235.1575 
L 576.923118 153.479794 
L 555.581246 153.479794 
z
" clip-path="url(#pd61bbb0484)" style="fill: #ffff00; stroke: #000000; stroke-linejoin: miter"/>
   </g>
   <g id="patch_26">
    <path d="M 576.923118 235.1575 
L 598.264989 235.1575 
L 598.264989 225.051154 
L 576.923118 225.051154 
z
" clip-path="url(#pd61bbb0484)" style="fill: #ffff00; stroke: #000000; stroke-linejoin: miter"/>
   </g>
   <g id="patch_27">
    <path d="M 598.264989 235.1575 
L 619.60686 235.1575 
L 619.60686 167.727153 
L 598.264989 167.727153 
z
" clip-path="url(#pd61bbb0484)" style="fill: #ffff00; stroke: #000000; stroke-linejoin: miter"/>
   </g>
   <g id="patch_28">
    <path d="M 619.60686 235.1575 
L 640.948732 235.1575 
L 640.948732 226.14322 
L 619.60686 226.14322 
z
" clip-path="url(#pd61bbb0484)" style="fill: #ffff00; stroke: #000000; stroke-linejoin: miter"/>
   </g>
   <g id="matplotlib.axis_3">
    <g id="xtick_5">
     <g id="line2d_18">
      <g>
       <use xlink:href="#m6d02c79305" x="413.302104" y="235.1575" style="stroke: #000000; stroke-width: 0.8"/>
      </g>
     </g>
     <g id="text_18">
      <!-- 0 -->
      <g transform="translate(408.848354 252.795313) scale(0.14 -0.14)">
       <use xlink:href="#DejaVuSans-30"/>
      </g>
     </g>
    </g>
    <g id="xtick_6">
     <g id="line2d_19">
      <g>
       <use xlink:href="#m6d02c79305" x="484.441675" y="235.1575" style="stroke: #000000; stroke-width: 0.8"/>
      </g>
     </g>
     <g id="text_19">
      <!-- 5 -->
      <g transform="translate(479.987925 252.795313) scale(0.14 -0.14)">
       <use xlink:href="#DejaVuSans-35"/>
      </g>
     </g>
    </g>
    <g id="xtick_7">
     <g id="line2d_20">
      <g>
       <use xlink:href="#m6d02c79305" x="555.581246" y="235.1575" style="stroke: #000000; stroke-width: 0.8"/>
      </g>
     </g>
     <g id="text_20">
      <!-- 10 -->
      <g transform="translate(546.673746 252.795313) scale(0.14 -0.14)">
       <use xlink:href="#DejaVuSans-31"/>
       <use xlink:href="#DejaVuSans-30" x="63.623047"/>
      </g>
     </g>
    </g>
    <g id="xtick_8">
     <g id="line2d_21">
      <g>
       <use xlink:href="#m6d02c79305" x="626.720817" y="235.1575" style="stroke: #000000; stroke-width: 0.8"/>
      </g>
     </g>
     <g id="text_21">
      <!-- 15 -->
      <g transform="translate(617.813317 252.795313) scale(0.14 -0.14)">
       <use xlink:href="#DejaVuSans-31"/>
       <use xlink:href="#DejaVuSans-35" x="63.623047"/>
      </g>
     </g>
    </g>
    <g id="text_22">
     <!-- education-num -->
     <g transform="translate(473.724375 271.864375) scale(0.16 -0.16)">
      <defs>
       <path id="DejaVuSans-63" d="M 3122 3366 
L 3122 2828 
Q 2878 2963 2633 3030 
Q 2388 3097 2138 3097 
Q 1578 3097 1268 2742 
Q 959 2388 959 1747 
Q 959 1106 1268 751 
Q 1578 397 2138 397 
Q 2388 397 2633 464 
Q 2878 531 3122 666 
L 3122 134 
Q 2881 22 2623 -34 
Q 2366 -91 2075 -91 
Q 1284 -91 818 406 
Q 353 903 353 1747 
Q 353 2603 823 3093 
Q 1294 3584 2113 3584 
Q 2378 3584 2631 3529 
Q 2884 3475 3122 3366 
z
" transform="scale(0.015625)"/>
       <path id="DejaVuSans-2d" d="M 313 2009 
L 1997 2009 
L 1997 1497 
L 313 1497 
L 313 2009 
z
" transform="scale(0.015625)"/>
      </defs>
      <use xlink:href="#DejaVuSans-65"/>
      <use xlink:href="#DejaVuSans-64" x="61.523438"/>
      <use xlink:href="#DejaVuSans-75" x="125"/>
      <use xlink:href="#DejaVuSans-63" x="188.378906"/>
      <use xlink:href="#DejaVuSans-61" x="243.359375"/>
      <use xlink:href="#DejaVuSans-74" x="304.638672"/>
      <use xlink:href="#DejaVuSans-69" x="343.847656"/>
      <use xlink:href="#DejaVuSans-6f" x="371.630859"/>
      <use xlink:href="#DejaVuSans-6e" x="432.8125"/>
      <use xlink:href="#DejaVuSans-2d" x="496.191406"/>
      <use xlink:href="#DejaVuSans-6e" x="532.275391"/>
      <use xlink:href="#DejaVuSans-75" x="595.654297"/>
      <use xlink:href="#DejaVuSans-6d" x="659.033203"/>
     </g>
    </g>
   </g>
   <g id="matplotlib.axis_4">
    <g id="ytick_8">
     <g id="line2d_22">
      <g>
       <use xlink:href="#mdfe366fed0" x="402.927708" y="235.1575" style="stroke: #000000; stroke-width: 0.8"/>
      </g>
     </g>
     <g id="text_23">
      <!-- 0.0 -->
      <g transform="translate(373.663333 240.476406) scale(0.14 -0.14)">
       <use xlink:href="#DejaVuSans-30"/>
       <use xlink:href="#DejaVuSans-2e" x="63.623047"/>
       <use xlink:href="#DejaVuSans-30" x="95.410156"/>
      </g>
     </g>
    </g>
    <g id="ytick_9">
     <g id="line2d_23">
      <g>
       <use xlink:href="#mdfe366fed0" x="402.927708" y="188.910079" style="stroke: #000000; stroke-width: 0.8"/>
      </g>
     </g>
     <g id="text_24">
      <!-- 0.1 -->
      <g transform="translate(373.663333 194.228985) scale(0.14 -0.14)">
       <use xlink:href="#DejaVuSans-30"/>
       <use xlink:href="#DejaVuSans-2e" x="63.623047"/>
       <use xlink:href="#DejaVuSans-31" x="95.410156"/>
      </g>
     </g>
    </g>
    <g id="ytick_10">
     <g id="line2d_24">
      <g>
       <use xlink:href="#mdfe366fed0" x="402.927708" y="142.662658" style="stroke: #000000; stroke-width: 0.8"/>
      </g>
     </g>
     <g id="text_25">
      <!-- 0.2 -->
      <g transform="translate(373.663333 147.981565) scale(0.14 -0.14)">
       <use xlink:href="#DejaVuSans-30"/>
       <use xlink:href="#DejaVuSans-2e" x="63.623047"/>
       <use xlink:href="#DejaVuSans-32" x="95.410156"/>
      </g>
     </g>
    </g>
    <g id="ytick_11">
     <g id="line2d_25">
      <g>
       <use xlink:href="#mdfe366fed0" x="402.927708" y="96.415238" style="stroke: #000000; stroke-width: 0.8"/>
      </g>
     </g>
     <g id="text_26">
      <!-- 0.3 -->
      <g transform="translate(373.663333 101.734144) scale(0.14 -0.14)">
       <use xlink:href="#DejaVuSans-30"/>
       <use xlink:href="#DejaVuSans-2e" x="63.623047"/>
       <use xlink:href="#DejaVuSans-33" x="95.410156"/>
      </g>
     </g>
    </g>
    <g id="ytick_12">
     <g id="line2d_26">
      <g>
       <use xlink:href="#mdfe366fed0" x="402.927708" y="50.167817" style="stroke: #000000; stroke-width: 0.8"/>
      </g>
     </g>
     <g id="text_27">
      <!-- 0.4 -->
      <g transform="translate(373.663333 55.486723) scale(0.14 -0.14)">
       <use xlink:href="#DejaVuSans-30"/>
       <use xlink:href="#DejaVuSans-2e" x="63.623047"/>
       <use xlink:href="#DejaVuSans-34" x="95.410156"/>
      </g>
     </g>
    </g>
    <g id="text_28">
     <!-- Density -->
     <g transform="translate(366.335833 160.67125) rotate(-90) scale(0.16 -0.16)">
      <use xlink:href="#DejaVuSans-44"/>
      <use xlink:href="#DejaVuSans-65" x="77.001953"/>
      <use xlink:href="#DejaVuSans-6e" x="138.525391"/>
      <use xlink:href="#DejaVuSans-73" x="201.904297"/>
      <use xlink:href="#DejaVuSans-69" x="254.003906"/>
      <use xlink:href="#DejaVuSans-74" x="281.787109"/>
      <use xlink:href="#DejaVuSans-79" x="320.996094"/>
     </g>
    </g>
   </g>
   <g id="line2d_27">
    <path d="M 414.865133 235.145761 
L 418.464356 235.052163 
L 422.063579 234.700502 
L 425.662803 234.19709 
L 428.062285 234.092886 
L 432.86125 234.340123 
L 434.060991 234.241479 
L 435.260732 233.997755 
L 437.660214 233.134354 
L 440.059696 232.239153 
L 441.259437 232.014667 
L 442.459179 232.015757 
L 443.65892 232.224152 
L 446.058402 232.877643 
L 447.258143 233.047038 
L 448.457884 232.943321 
L 449.657625 232.504446 
L 450.857366 231.750739 
L 453.256849 229.818412 
L 454.45659 229.043316 
L 455.656331 228.651328 
L 456.856072 228.726904 
L 458.055813 229.217275 
L 460.455296 230.616769 
L 461.655037 230.96999 
L 462.854778 230.771803 
L 464.054519 229.920051 
L 465.25426 228.477285 
L 467.653742 224.895569 
L 468.853483 223.541571 
L 470.053225 222.954055 
L 471.252966 223.279667 
L 472.452707 224.420538 
L 474.852189 227.779262 
L 476.05193 229.148655 
L 477.251671 229.87108 
L 478.451412 229.828617 
L 479.651154 229.101905 
L 482.050636 226.712827 
L 483.250377 225.782748 
L 484.450118 225.43075 
L 485.649859 225.751672 
L 486.8496 226.621551 
L 488.049341 227.728394 
L 489.249083 228.657886 
L 490.448824 229.004681 
L 491.648565 228.480208 
L 492.848306 226.99781 
L 494.048047 224.721133 
L 496.447529 219.581142 
L 497.647271 217.87895 
L 498.847012 217.370409 
L 500.046753 218.155614 
L 501.246494 219.964482 
L 502.446235 222.227734 
L 503.645976 224.23961 
L 504.845717 225.35064 
L 506.045458 225.134329 
L 507.2452 223.497063 
L 508.444941 220.718396 
L 510.844423 214.380317 
L 512.044164 212.424137 
L 513.243905 212.083098 
L 514.443646 213.476937 
L 515.643387 216.274436 
L 518.04287 223.354128 
L 519.242611 226.238221 
L 520.442352 228.095973 
L 521.642093 228.855736 
L 522.841834 228.706045 
L 524.041575 227.99935 
L 526.441058 226.375743 
L 527.640799 225.775287 
L 528.84054 224.951792 
L 530.040281 223.018702 
L 531.240022 218.553926 
L 532.439763 209.740869 
L 533.639504 194.761754 
L 534.839246 172.477112 
L 536.038987 143.268 
L 538.438469 76.561263 
L 539.63821 49.913719 
L 540.837951 35.347976 
L 542.037692 36.010516 
L 543.237433 51.325378 
L 544.437175 77.016858 
L 545.636916 106.424393 
L 546.836657 132.503791 
L 548.036398 149.715421 
L 549.236139 155.244437 
L 550.43588 149.403237 
L 551.635621 135.324385 
L 552.835363 118.089701 
L 554.035104 103.422118 
L 555.234845 96.164374 
L 556.434586 98.95543 
L 557.634327 111.58602 
L 558.834068 131.306384 
L 561.23355 175.307704 
L 562.433292 192.354816 
L 563.633033 203.693542 
L 564.832774 209.510883 
L 566.032515 211.104673 
L 567.232256 210.298905 
L 568.431997 208.90957 
L 569.631738 208.336931 
L 570.831479 209.320868 
L 572.031221 211.885715 
L 574.430703 219.208919 
L 575.630444 222.208628 
L 576.830185 223.828199 
L 578.029926 223.810082 
L 579.229667 222.319787 
L 582.828891 215.239468 
L 584.028632 214.338175 
L 585.228373 214.669235 
L 586.428114 215.77893 
L 587.627855 216.685586 
L 588.827596 216.052813 
L 590.027338 212.485696 
L 591.227079 204.920983 
L 592.42682 193.061329 
L 596.026043 146.016127 
L 597.225784 135.835819 
L 598.425525 132.871934 
L 599.625267 137.811608 
L 600.825008 149.399894 
L 604.424231 194.467519 
L 605.623972 203.793893 
L 606.823713 208.341729 
L 608.023454 208.779229 
L 609.223196 206.577298 
L 610.422937 203.540705 
L 611.622678 201.339955 
L 612.822419 201.119393 
L 614.02216 203.267568 
L 615.221901 207.417069 
L 617.621384 217.941047 
L 618.821125 222.31478 
L 620.020866 225.24473 
L 621.220607 226.621674 
L 622.420348 226.706877 
L 623.620089 225.999548 
L 624.81983 225.082097 
L 626.019571 224.471207 
L 627.219313 224.498272 
L 628.419054 225.245125 
L 629.618795 226.553203 
L 632.018277 229.517844 
L 633.218018 230.494606 
L 634.417759 230.857399 
L 635.6175 230.598115 
L 636.817242 229.864686 
L 639.216724 228.072741 
L 640.416465 227.600069 
L 641.616206 227.668146 
L 642.815947 228.292496 
L 644.015688 229.346843 
L 646.415171 231.88716 
L 647.614912 232.983676 
L 648.814653 233.82462 
L 650.014394 234.403648 
L 651.214135 234.764215 
L 653.613617 235.073491 
L 653.613617 235.073491 
" clip-path="url(#pd61bbb0484)" style="fill: none; stroke: #0000ff; stroke-width: 1.5; stroke-linecap: square"/>
   </g>
   <g id="line2d_28">
    <path d="M 427.530018 235.016741 
L 439.077724 234.74923 
L 447.203888 234.343834 
L 453.61928 233.803084 
L 458.751594 233.166007 
L 463.456215 232.370463 
L 467.733143 231.428407 
L 471.582378 230.367436 
L 475.431613 229.072364 
L 478.853156 227.699637 
L 482.274698 226.096865 
L 485.696241 224.245531 
L 489.117783 222.130398 
L 492.539326 219.740754 
L 495.960868 217.071696 
L 499.382411 214.125376 
L 503.231646 210.492582 
L 507.080881 206.550843 
L 511.35781 201.863315 
L 516.917816 195.423346 
L 529.320908 180.917482 
L 533.170143 176.797917 
L 536.591685 173.450451 
L 539.585535 170.827652 
L 542.151692 168.845481 
L 544.717849 167.13782 
L 547.284006 165.728719 
L 549.42247 164.797211 
L 551.560934 164.096487 
L 553.699398 163.63365 
L 555.837862 163.413419 
L 557.976326 163.438045 
L 560.11479 163.707277 
L 562.253254 164.218363 
L 564.391718 164.966097 
L 566.530182 165.94291 
L 568.668646 167.138994 
L 571.234803 168.846871 
L 573.80096 170.829238 
L 576.79481 173.45224 
L 579.788659 176.363454 
L 583.637895 180.446717 
L 588.342516 185.802079 
L 605.450228 205.639168 
L 609.727156 210.071113 
L 613.576392 213.739767 
L 616.997934 216.720043 
L 620.419477 219.423877 
L 623.841019 221.848155 
L 627.262562 223.99697 
L 630.684104 225.88038 
L 634.105647 227.513129 
L 637.527189 228.91339 
L 640.948732 230.101588 
L 640.948732 230.101588 
" clip-path="url(#pd61bbb0484)" style="fill: none; stroke: #000000; stroke-width: 1.5; stroke-linecap: square"/>
   </g>
   <g id="line2d_29">
    <path d="M 427.530018 235.016743 
L 439.077724 234.749232 
L 447.203888 234.343838 
L 453.61928 233.803089 
L 458.751594 233.166013 
L 463.456215 232.37047 
L 467.733143 231.428414 
L 471.582378 230.367443 
L 475.431613 229.07237 
L 478.853156 227.699643 
L 482.274698 226.096869 
L 485.696241 224.245533 
L 489.117783 222.130398 
L 492.539326 219.740752 
L 495.960868 217.07169 
L 499.382411 214.125367 
L 503.231646 210.492568 
L 507.080881 206.550825 
L 511.35781 201.863293 
L 516.917816 195.423318 
L 529.320908 180.91745 
L 533.170143 176.797887 
L 536.591685 173.450425 
L 539.585535 170.827628 
L 542.151692 168.845462 
L 544.717849 167.137804 
L 547.284006 165.728708 
L 549.42247 164.797204 
L 551.560934 164.096484 
L 553.699398 163.633652 
L 555.837862 163.413425 
L 557.976326 163.438056 
L 560.11479 163.707292 
L 562.253254 164.218381 
L 564.391718 164.966119 
L 566.530182 165.942935 
L 568.668646 167.139023 
L 571.234803 168.846903 
L 573.80096 170.829272 
L 576.79481 173.452276 
L 579.788659 176.363491 
L 583.637895 180.446754 
L 588.342516 185.802114 
L 605.450228 205.639182 
L 609.727156 210.071121 
L 613.576392 213.73977 
L 616.997934 216.720042 
L 620.419477 219.423873 
L 623.841019 221.848148 
L 627.262562 223.996961 
L 630.684104 225.88037 
L 634.105647 227.513118 
L 637.527189 228.913379 
L 640.948732 230.101576 
L 640.948732 230.101576 
" clip-path="url(#pd61bbb0484)" style="fill: none; stroke: #ff0000; stroke-width: 1.5; stroke-linecap: square"/>
   </g>
   <g id="patch_29">
    <path d="M 402.927708 235.1575 
L 402.927708 25.3575 
" style="fill: none; stroke: #000000; stroke-width: 0.8; stroke-linejoin: miter; stroke-linecap: square"/>
   </g>
   <g id="patch_30">
    <path d="M 665.551042 235.1575 
L 665.551042 25.3575 
" style="fill: none; stroke: #000000; stroke-width: 0.8; stroke-linejoin: miter; stroke-linecap: square"/>
   </g>
   <g id="patch_31">
    <path d="M 402.927708 235.1575 
L 665.551042 235.1575 
" style="fill: none; stroke: #000000; stroke-width: 0.8; stroke-linejoin: miter; stroke-linecap: square"/>
   </g>
   <g id="patch_32">
    <path d="M 402.927708 25.3575 
L 665.551042 25.3575 
" style="fill: none; stroke: #000000; stroke-width: 0.8; stroke-linejoin: miter; stroke-linecap: square"/>
   </g>
   <g id="text_29">
    <!-- Distribution of education-num -->
    <g transform="translate(414.258125 19.3575) scale(0.16 -0.16)">
     <use xlink:href="#DejaVuSans-44"/>
     <use xlink:href="#DejaVuSans-69" x="77.001953"/>
     <use xlink:href="#DejaVuSans-73" x="104.785156"/>
     <use xlink:href="#DejaVuSans-74" x="156.884766"/>
     <use xlink:href="#DejaVuSans-72" x="196.09375"/>
     <use xlink:href="#DejaVuSans-69" x="237.207031"/>
     <use xlink:href="#DejaVuSans-62" x="264.990234"/>
     <use xlink:href="#DejaVuSans-75" x="328.466797"/>
     <use xlink:href="#DejaVuSans-74" x="391.845703"/>
     <use xlink:href="#DejaVuSans-69" x="431.054688"/>
     <use xlink:href="#DejaVuSans-6f" x="458.837891"/>
     <use xlink:href="#DejaVuSans-6e" x="520.019531"/>
     <use xlink:href="#DejaVuSans-20" x="583.398438"/>
     <use xlink:href="#DejaVuSans-6f" x="615.185547"/>
     <use xlink:href="#DejaVuSans-66" x="676.367188"/>
     <use xlink:href="#DejaVuSans-20" x="711.572266"/>
     <use xlink:href="#DejaVuSans-65" x="743.359375"/>
     <use xlink:href="#DejaVuSans-64" x="804.882812"/>
     <use xlink:href="#DejaVuSans-75" x="868.359375"/>
     <use xlink:href="#DejaVuSans-63" x="931.738281"/>
     <use xlink:href="#DejaVuSans-61" x="986.71875"/>
     <use xlink:href="#DejaVuSans-74" x="1047.998047"/>
     <use xlink:href="#DejaVuSans-69" x="1087.207031"/>
     <use xlink:href="#DejaVuSans-6f" x="1114.990234"/>
     <use xlink:href="#DejaVuSans-6e" x="1176.171875"/>
     <use xlink:href="#DejaVuSans-2d" x="1239.550781"/>
     <use xlink:href="#DejaVuSans-6e" x="1275.634766"/>
     <use xlink:href="#DejaVuSans-75" x="1339.013672"/>
     <use xlink:href="#DejaVuSans-6d" x="1402.392578"/>
    </g>
   </g>
   <g id="legend_2">
    <g id="patch_33">
     <path d="M 585.172917 77.391875 
L 658.551042 77.391875 
Q 660.551042 77.391875 660.551042 75.391875 
L 660.551042 32.3575 
Q 660.551042 30.3575 658.551042 30.3575 
L 585.172917 30.3575 
Q 583.172917 30.3575 583.172917 32.3575 
L 583.172917 75.391875 
Q 583.172917 77.391875 585.172917 77.391875 
z
" style="fill: #ffffff; opacity: 0.8; stroke: #cccccc; stroke-linejoin: miter"/>
    </g>
    <g id="line2d_30">
     <path d="M 587.172917 38.455938 
L 597.172917 38.455938 
L 607.172917 38.455938 
" style="fill: none; stroke: #0000ff; stroke-width: 1.5; stroke-linecap: square"/>
    </g>
    <g id="text_30">
     <!-- kde -->
     <g transform="translate(615.172917 41.955938) scale(0.1 -0.1)">
      <use xlink:href="#DejaVuSans-6b"/>
      <use xlink:href="#DejaVuSans-64" x="57.910156"/>
      <use xlink:href="#DejaVuSans-65" x="121.386719"/>
     </g>
    </g>
    <g id="line2d_31">
     <path d="M 587.172917 53.134063 
L 597.172917 53.134063 
L 607.172917 53.134063 
" style="fill: none; stroke: #000000; stroke-width: 1.5; stroke-linecap: square"/>
    </g>
    <g id="text_31">
     <!-- norm -->
     <g transform="translate(615.172917 56.634063) scale(0.1 -0.1)">
      <use xlink:href="#DejaVuSans-6e"/>
      <use xlink:href="#DejaVuSans-6f" x="63.378906"/>
      <use xlink:href="#DejaVuSans-72" x="124.560547"/>
      <use xlink:href="#DejaVuSans-6d" x="163.923828"/>
     </g>
    </g>
    <g id="line2d_32">
     <path d="M 587.172917 67.812188 
L 597.172917 67.812188 
L 607.172917 67.812188 
" style="fill: none; stroke: #ff0000; stroke-width: 1.5; stroke-linecap: square"/>
    </g>
    <g id="text_32">
     <!-- lognorm -->
     <g transform="translate(615.172917 71.312188) scale(0.1 -0.1)">
      <use xlink:href="#DejaVuSans-6c"/>
      <use xlink:href="#DejaVuSans-6f" x="27.783203"/>
      <use xlink:href="#DejaVuSans-67" x="88.964844"/>
      <use xlink:href="#DejaVuSans-6e" x="152.441406"/>
      <use xlink:href="#DejaVuSans-6f" x="215.820312"/>
      <use xlink:href="#DejaVuSans-72" x="277.001953"/>
      <use xlink:href="#DejaVuSans-6d" x="316.365234"/>
     </g>
    </g>
   </g>
  </g>
  <g id="axes_3">
   <g id="patch_34">
    <path d="M 732.091042 235.1575 
L 994.714375 235.1575 
L 994.714375 25.3575 
L 732.091042 25.3575 
z
" style="fill: #ffffff"/>
   </g>
   <g id="patch_35">
    <path d="M 753.638993 235.1575 
L 775.591736 235.1575 
L 775.591736 231.630296 
L 753.638993 231.630296 
z
" clip-path="url(#p7842e0e860)" style="fill: #ffff00; stroke: #000000; stroke-linejoin: miter"/>
   </g>
   <g id="patch_36">
    <path d="M 775.591736 235.1575 
L 797.544479 235.1575 
L 797.544479 224.723247 
L 775.591736 224.723247 
z
" clip-path="url(#p7842e0e860)" style="fill: #ffff00; stroke: #000000; stroke-linejoin: miter"/>
   </g>
   <g id="patch_37">
    <path d="M 797.544479 235.1575 
L 819.497222 235.1575 
L 819.497222 224.503776 
L 797.544479 224.503776 
z
" clip-path="url(#p7842e0e860)" style="fill: #ffff00; stroke: #000000; stroke-linejoin: miter"/>
   </g>
   <g id="patch_38">
    <path d="M 819.497222 235.1575 
L 841.449965 235.1575 
L 841.449965 151.636444 
L 819.497222 151.636444 
z
" clip-path="url(#p7842e0e860)" style="fill: #ffff00; stroke: #000000; stroke-linejoin: miter"/>
   </g>
   <g id="patch_39">
    <path d="M 841.449965 235.1575 
L 863.402708 235.1575 
L 863.402708 220.512549 
L 841.449965 220.512549 
z
" clip-path="url(#p7842e0e860)" style="fill: #ffff00; stroke: #000000; stroke-linejoin: miter"/>
   </g>
   <g id="patch_40">
    <path d="M 863.402708 235.1575 
L 885.355451 235.1575 
L 885.355451 216.885015 
L 863.402708 216.885015 
z
" clip-path="url(#p7842e0e860)" style="fill: #ffff00; stroke: #000000; stroke-linejoin: miter"/>
   </g>
   <g id="patch_41">
    <path d="M 885.355451 235.1575 
L 907.308194 235.1575 
L 907.308194 226.874057 
L 885.355451 226.874057 
z
" clip-path="url(#p7842e0e860)" style="fill: #ffff00; stroke: #000000; stroke-linejoin: miter"/>
   </g>
   <g id="patch_42">
    <path d="M 907.308194 235.1575 
L 929.260938 235.1575 
L 929.260938 233.016095 
L 907.308194 233.016095 
z
" clip-path="url(#p7842e0e860)" style="fill: #ffff00; stroke: #000000; stroke-linejoin: miter"/>
   </g>
   <g id="patch_43">
    <path d="M 929.260938 235.1575 
L 951.213681 235.1575 
L 951.213681 234.169883 
L 929.260938 234.169883 
z
" clip-path="url(#p7842e0e860)" style="fill: #ffff00; stroke: #000000; stroke-linejoin: miter"/>
   </g>
   <g id="patch_44">
    <path d="M 951.213681 235.1575 
L 973.166424 235.1575 
L 973.166424 234.489683 
L 951.213681 234.489683 
z
" clip-path="url(#p7842e0e860)" style="fill: #ffff00; stroke: #000000; stroke-linejoin: miter"/>
   </g>
   <g id="matplotlib.axis_5">
    <g id="xtick_9">
     <g id="line2d_33">
      <g>
       <use xlink:href="#m6d02c79305" x="751.398917" y="235.1575" style="stroke: #000000; stroke-width: 0.8"/>
      </g>
     </g>
     <g id="text_33">
      <!-- 0 -->
      <g transform="translate(746.945167 252.795313) scale(0.14 -0.14)">
       <use xlink:href="#DejaVuSans-30"/>
      </g>
     </g>
    </g>
    <g id="xtick_10">
     <g id="line2d_34">
      <g>
       <use xlink:href="#m6d02c79305" x="796.200434" y="235.1575" style="stroke: #000000; stroke-width: 0.8"/>
      </g>
     </g>
     <g id="text_34">
      <!-- 20 -->
      <g transform="translate(787.292934 252.795313) scale(0.14 -0.14)">
       <use xlink:href="#DejaVuSans-32"/>
       <use xlink:href="#DejaVuSans-30" x="63.623047"/>
      </g>
     </g>
    </g>
    <g id="xtick_11">
     <g id="line2d_35">
      <g>
       <use xlink:href="#m6d02c79305" x="841.00195" y="235.1575" style="stroke: #000000; stroke-width: 0.8"/>
      </g>
     </g>
     <g id="text_35">
      <!-- 40 -->
      <g transform="translate(832.09445 252.795313) scale(0.14 -0.14)">
       <use xlink:href="#DejaVuSans-34"/>
       <use xlink:href="#DejaVuSans-30" x="63.623047"/>
      </g>
     </g>
    </g>
    <g id="xtick_12">
     <g id="line2d_36">
      <g>
       <use xlink:href="#m6d02c79305" x="885.803467" y="235.1575" style="stroke: #000000; stroke-width: 0.8"/>
      </g>
     </g>
     <g id="text_36">
      <!-- 60 -->
      <g transform="translate(876.895967 252.795313) scale(0.14 -0.14)">
       <use xlink:href="#DejaVuSans-36"/>
       <use xlink:href="#DejaVuSans-30" x="63.623047"/>
      </g>
     </g>
    </g>
    <g id="xtick_13">
     <g id="line2d_37">
      <g>
       <use xlink:href="#m6d02c79305" x="930.604983" y="235.1575" style="stroke: #000000; stroke-width: 0.8"/>
      </g>
     </g>
     <g id="text_37">
      <!-- 80 -->
      <g transform="translate(921.697483 252.795313) scale(0.14 -0.14)">
       <use xlink:href="#DejaVuSans-38"/>
       <use xlink:href="#DejaVuSans-30" x="63.623047"/>
      </g>
     </g>
    </g>
    <g id="xtick_14">
     <g id="line2d_38">
      <g>
       <use xlink:href="#m6d02c79305" x="975.4065" y="235.1575" style="stroke: #000000; stroke-width: 0.8"/>
      </g>
     </g>
     <g id="text_38">
      <!-- 100 -->
      <g transform="translate(962.04525 252.795313) scale(0.14 -0.14)">
       <use xlink:href="#DejaVuSans-31"/>
       <use xlink:href="#DejaVuSans-30" x="63.623047"/>
       <use xlink:href="#DejaVuSans-30" x="127.246094"/>
      </g>
     </g>
    </g>
    <g id="text_39">
     <!-- hours-per-week -->
     <g transform="translate(801.338958 271.864375) scale(0.16 -0.16)">
      <defs>
       <path id="DejaVuSans-68" d="M 3513 2113 
L 3513 0 
L 2938 0 
L 2938 2094 
Q 2938 2591 2744 2837 
Q 2550 3084 2163 3084 
Q 1697 3084 1428 2787 
Q 1159 2491 1159 1978 
L 1159 0 
L 581 0 
L 581 4863 
L 1159 4863 
L 1159 2956 
Q 1366 3272 1645 3428 
Q 1925 3584 2291 3584 
Q 2894 3584 3203 3211 
Q 3513 2838 3513 2113 
z
" transform="scale(0.015625)"/>
       <path id="DejaVuSans-70" d="M 1159 525 
L 1159 -1331 
L 581 -1331 
L 581 3500 
L 1159 3500 
L 1159 2969 
Q 1341 3281 1617 3432 
Q 1894 3584 2278 3584 
Q 2916 3584 3314 3078 
Q 3713 2572 3713 1747 
Q 3713 922 3314 415 
Q 2916 -91 2278 -91 
Q 1894 -91 1617 61 
Q 1341 213 1159 525 
z
M 3116 1747 
Q 3116 2381 2855 2742 
Q 2594 3103 2138 3103 
Q 1681 3103 1420 2742 
Q 1159 2381 1159 1747 
Q 1159 1113 1420 752 
Q 1681 391 2138 391 
Q 2594 391 2855 752 
Q 3116 1113 3116 1747 
z
" transform="scale(0.015625)"/>
       <path id="DejaVuSans-77" d="M 269 3500 
L 844 3500 
L 1563 769 
L 2278 3500 
L 2956 3500 
L 3675 769 
L 4391 3500 
L 4966 3500 
L 4050 0 
L 3372 0 
L 2619 2869 
L 1863 0 
L 1184 0 
L 269 3500 
z
" transform="scale(0.015625)"/>
      </defs>
      <use xlink:href="#DejaVuSans-68"/>
      <use xlink:href="#DejaVuSans-6f" x="63.378906"/>
      <use xlink:href="#DejaVuSans-75" x="124.560547"/>
      <use xlink:href="#DejaVuSans-72" x="187.939453"/>
      <use xlink:href="#DejaVuSans-73" x="229.052734"/>
      <use xlink:href="#DejaVuSans-2d" x="281.152344"/>
      <use xlink:href="#DejaVuSans-70" x="317.236328"/>
      <use xlink:href="#DejaVuSans-65" x="380.712891"/>
      <use xlink:href="#DejaVuSans-72" x="442.236328"/>
      <use xlink:href="#DejaVuSans-2d" x="476.974609"/>
      <use xlink:href="#DejaVuSans-77" x="513.058594"/>
      <use xlink:href="#DejaVuSans-65" x="594.845703"/>
      <use xlink:href="#DejaVuSans-65" x="656.369141"/>
      <use xlink:href="#DejaVuSans-6b" x="717.892578"/>
     </g>
    </g>
   </g>
   <g id="matplotlib.axis_6">
    <g id="ytick_13">
     <g id="line2d_39">
      <g>
       <use xlink:href="#mdfe366fed0" x="732.091042" y="235.1575" style="stroke: #000000; stroke-width: 0.8"/>
      </g>
     </g>
     <g id="text_40">
      <!-- 0.00 -->
      <g transform="translate(693.919167 240.476406) scale(0.14 -0.14)">
       <use xlink:href="#DejaVuSans-30"/>
       <use xlink:href="#DejaVuSans-2e" x="63.623047"/>
       <use xlink:href="#DejaVuSans-30" x="95.410156"/>
       <use xlink:href="#DejaVuSans-30" x="159.033203"/>
      </g>
     </g>
    </g>
    <g id="ytick_14">
     <g id="line2d_40">
      <g>
       <use xlink:href="#mdfe366fed0" x="732.091042" y="205.143245" style="stroke: #000000; stroke-width: 0.8"/>
      </g>
     </g>
     <g id="text_41">
      <!-- 0.02 -->
      <g transform="translate(693.919167 210.462151) scale(0.14 -0.14)">
       <use xlink:href="#DejaVuSans-30"/>
       <use xlink:href="#DejaVuSans-2e" x="63.623047"/>
       <use xlink:href="#DejaVuSans-30" x="95.410156"/>
       <use xlink:href="#DejaVuSans-32" x="159.033203"/>
      </g>
     </g>
    </g>
    <g id="ytick_15">
     <g id="line2d_41">
      <g>
       <use xlink:href="#mdfe366fed0" x="732.091042" y="175.128989" style="stroke: #000000; stroke-width: 0.8"/>
      </g>
     </g>
     <g id="text_42">
      <!-- 0.04 -->
      <g transform="translate(693.919167 180.447896) scale(0.14 -0.14)">
       <use xlink:href="#DejaVuSans-30"/>
       <use xlink:href="#DejaVuSans-2e" x="63.623047"/>
       <use xlink:href="#DejaVuSans-30" x="95.410156"/>
       <use xlink:href="#DejaVuSans-34" x="159.033203"/>
      </g>
     </g>
    </g>
    <g id="ytick_16">
     <g id="line2d_42">
      <g>
       <use xlink:href="#mdfe366fed0" x="732.091042" y="145.114734" style="stroke: #000000; stroke-width: 0.8"/>
      </g>
     </g>
     <g id="text_43">
      <!-- 0.06 -->
      <g transform="translate(693.919167 150.43364) scale(0.14 -0.14)">
       <use xlink:href="#DejaVuSans-30"/>
       <use xlink:href="#DejaVuSans-2e" x="63.623047"/>
       <use xlink:href="#DejaVuSans-30" x="95.410156"/>
       <use xlink:href="#DejaVuSans-36" x="159.033203"/>
      </g>
     </g>
    </g>
    <g id="ytick_17">
     <g id="line2d_43">
      <g>
       <use xlink:href="#mdfe366fed0" x="732.091042" y="115.100479" style="stroke: #000000; stroke-width: 0.8"/>
      </g>
     </g>
     <g id="text_44">
      <!-- 0.08 -->
      <g transform="translate(693.919167 120.419385) scale(0.14 -0.14)">
       <use xlink:href="#DejaVuSans-30"/>
       <use xlink:href="#DejaVuSans-2e" x="63.623047"/>
       <use xlink:href="#DejaVuSans-30" x="95.410156"/>
       <use xlink:href="#DejaVuSans-38" x="159.033203"/>
      </g>
     </g>
    </g>
    <g id="ytick_18">
     <g id="line2d_44">
      <g>
       <use xlink:href="#mdfe366fed0" x="732.091042" y="85.086224" style="stroke: #000000; stroke-width: 0.8"/>
      </g>
     </g>
     <g id="text_45">
      <!-- 0.10 -->
      <g transform="translate(693.919167 90.40513) scale(0.14 -0.14)">
       <use xlink:href="#DejaVuSans-30"/>
       <use xlink:href="#DejaVuSans-2e" x="63.623047"/>
       <use xlink:href="#DejaVuSans-31" x="95.410156"/>
       <use xlink:href="#DejaVuSans-30" x="159.033203"/>
      </g>
     </g>
    </g>
    <g id="ytick_19">
     <g id="line2d_45">
      <g>
       <use xlink:href="#mdfe366fed0" x="732.091042" y="55.071968" style="stroke: #000000; stroke-width: 0.8"/>
      </g>
     </g>
     <g id="text_46">
      <!-- 0.12 -->
      <g transform="translate(693.919167 60.390875) scale(0.14 -0.14)">
       <use xlink:href="#DejaVuSans-30"/>
       <use xlink:href="#DejaVuSans-2e" x="63.623047"/>
       <use xlink:href="#DejaVuSans-31" x="95.410156"/>
       <use xlink:href="#DejaVuSans-32" x="159.033203"/>
      </g>
     </g>
    </g>
    <g id="text_47">
     <!-- Density -->
     <g transform="translate(686.591667 160.67125) rotate(-90) scale(0.16 -0.16)">
      <use xlink:href="#DejaVuSans-44"/>
      <use xlink:href="#DejaVuSans-65" x="77.001953"/>
      <use xlink:href="#DejaVuSans-6e" x="138.525391"/>
      <use xlink:href="#DejaVuSans-73" x="201.904297"/>
      <use xlink:href="#DejaVuSans-69" x="254.003906"/>
      <use xlink:href="#DejaVuSans-74" x="281.787109"/>
      <use xlink:href="#DejaVuSans-79" x="320.996094"/>
     </g>
    </g>
   </g>
   <g id="line2d_46">
    <path d="M 744.028466 235.154411 
L 748.82743 235.033578 
L 751.226913 234.760986 
L 754.826136 234.001696 
L 759.625101 232.949473 
L 763.224324 232.487631 
L 765.623806 232.154987 
L 768.023289 231.482406 
L 772.822253 229.699568 
L 774.021994 229.59013 
L 775.221735 229.722094 
L 777.621218 230.344044 
L 778.820959 230.500173 
L 780.0207 230.314004 
L 781.220441 229.688982 
L 784.819664 226.850062 
L 786.019405 226.673848 
L 787.219147 227.084649 
L 788.418888 227.718099 
L 789.618629 227.980866 
L 790.81837 227.304051 
L 792.018111 225.436866 
L 794.417593 219.876794 
L 795.617334 218.134414 
L 796.817076 218.210732 
L 798.016817 220.074746 
L 800.416299 225.502975 
L 801.61604 226.977926 
L 802.815781 227.020973 
L 804.015522 225.977322 
L 805.215264 224.607553 
L 806.415005 223.731937 
L 807.614746 223.869998 
L 808.814487 225.016973 
L 810.014228 226.668658 
L 811.213969 228.069788 
L 812.41371 228.530366 
L 813.613451 227.667936 
L 814.813193 225.5452 
L 817.212675 220.06187 
L 818.412416 218.521347 
L 819.612157 218.566803 
L 820.811898 219.986464 
L 822.011639 221.991847 
L 823.21138 223.591494 
L 824.411122 223.971418 
L 825.610863 222.758401 
L 826.810604 220.174806 
L 828.010345 217.024831 
L 829.210086 214.355903 
L 830.409827 212.778934 
L 831.609568 211.718459 
L 832.80931 208.975254 
L 834.009051 200.883099 
L 835.208792 183.317281 
L 836.408533 153.810153 
L 838.808015 73.309259 
L 840.007756 43.231219 
L 841.207497 35.347976 
L 842.407239 52.922538 
L 843.60698 89.184034 
L 844.806721 131.363463 
L 846.006462 167.586195 
L 847.206203 191.652273 
L 848.405944 203.527332 
L 849.605685 206.952826 
L 852.005168 206.254352 
L 853.204909 207.636605 
L 855.604391 213.706659 
L 856.804132 215.192692 
L 858.003873 213.910001 
L 859.203614 209.757271 
L 861.603097 198.1205 
L 862.802838 195.02845 
L 864.002579 196.098269 
L 865.20232 201.25039 
L 867.601802 216.367547 
L 868.801543 222.098621 
L 870.001285 225.214151 
L 871.201026 225.998494 
L 872.400767 225.388912 
L 873.600508 224.512735 
L 874.800249 224.267994 
L 875.99999 225.008841 
L 878.399472 227.827112 
L 879.599214 228.272221 
L 880.798955 227.170468 
L 881.998696 224.483027 
L 883.198437 220.898062 
L 884.398178 217.683385 
L 885.597919 216.164465 
L 886.79766 217.043585 
L 887.997401 220.016828 
L 890.396884 227.701726 
L 891.596625 230.332615 
L 892.796366 231.680565 
L 893.996107 232.027553 
L 896.395589 231.667806 
L 897.595331 231.730309 
L 898.795072 232.115461 
L 901.194554 233.173447 
L 902.394295 233.376549 
L 903.594036 233.176521 
L 904.793777 232.616189 
L 907.19326 231.256703 
L 908.393001 230.969333 
L 909.592742 231.118854 
L 910.792483 231.625529 
L 913.191965 232.954464 
L 914.391706 233.461142 
L 915.591447 233.778821 
L 917.99093 233.989264 
L 920.390412 234.113817 
L 923.989635 234.41926 
L 925.189377 234.345057 
L 927.588859 233.80518 
L 928.7886 233.483337 
L 929.988341 233.284668 
L 931.188082 233.294729 
L 933.587564 233.833523 
L 935.987047 234.332692 
L 938.386529 234.385307 
L 940.786011 234.405865 
L 947.984458 234.93263 
L 953.983164 234.750959 
L 962.381352 235.074822 
L 965.980575 234.918274 
L 968.380057 234.595453 
L 971.979281 233.919021 
L 973.179022 233.874271 
L 974.378763 233.989983 
L 979.177727 234.951128 
L 981.57721 235.119611 
L 982.776951 235.144326 
L 982.776951 235.144326 
" clip-path="url(#p7842e0e860)" style="fill: none; stroke: #0000ff; stroke-width: 1.5; stroke-linecap: square"/>
   </g>
   <g id="line2d_47">
    <path d="M 753.638993 234.851159 
L 760.677949 234.49281 
L 765.957165 234.018293 
L 770.356513 233.421346 
L 774.315925 232.674665 
L 777.835403 231.803007 
L 781.354881 230.697612 
L 784.434424 229.510323 
L 787.513967 228.094433 
L 790.59351 226.431612 
L 793.673053 224.509199 
L 796.752597 222.322219 
L 799.83214 219.875335 
L 803.351618 216.781779 
L 807.31103 212.977291 
L 812.590247 207.540184 
L 821.388942 198.432273 
L 824.908419 195.13915 
L 827.987962 192.581524 
L 830.627571 190.697266 
L 832.827245 189.380822 
L 835.026918 188.320459 
L 837.226592 187.535538 
L 838.986331 187.115856 
L 840.74607 186.886873 
L 842.505809 186.85134 
L 844.265548 187.009685 
L 846.025286 187.360003 
L 847.785025 187.898098 
L 849.984699 188.824818 
L 852.184373 190.017733 
L 854.384046 191.455246 
L 857.023655 193.466994 
L 860.103198 196.145733 
L 863.622676 199.537967 
L 868.901892 205.004131 
L 876.820718 213.211674 
L 880.78013 216.997951 
L 884.299608 220.071352 
L 887.379151 222.498772 
L 890.458694 224.665551 
L 893.538237 226.567826 
L 896.617781 228.211232 
L 899.697324 229.608933 
L 902.776867 230.779613 
L 906.296345 231.868224 
L 909.815822 232.725553 
L 913.775235 233.458987 
L 918.174582 234.04449 
L 923.453799 234.509142 
L 930.05282 234.843906 
L 938.851515 235.048459 
L 954.24923 235.144019 
L 973.166424 235.156822 
L 973.166424 235.156822 
" clip-path="url(#p7842e0e860)" style="fill: none; stroke: #000000; stroke-width: 1.5; stroke-linecap: square"/>
   </g>
   <g id="line2d_48">
    <path d="M 753.638993 234.950722 
L 760.677949 234.656734 
L 765.957165 234.237929 
L 770.356513 233.685071 
L 774.315925 232.968875 
L 777.835403 232.110512 
L 780.914946 231.153401 
L 783.994489 229.974487 
L 787.074033 228.54796 
L 790.153576 226.852508 
L 793.233119 224.87372 
L 796.312662 222.606521 
L 799.392205 220.057445 
L 802.911683 216.825404 
L 806.871095 212.848741 
L 812.150312 207.18482 
L 819.629203 199.156919 
L 823.14868 195.70535 
L 826.228224 193.011135 
L 828.867832 191.014262 
L 831.067506 189.608267 
L 833.267179 188.462711 
L 835.466853 187.596986 
L 837.226592 187.115628 
L 838.986331 186.827312 
L 840.74607 186.734422 
L 842.505809 186.836968 
L 844.265548 187.132602 
L 846.025286 187.616694 
L 848.22496 188.476265 
L 850.424634 189.601845 
L 852.624307 190.971431 
L 855.263916 192.90072 
L 858.343459 195.482449 
L 861.862937 198.764803 
L 866.702219 203.625057 
L 875.940848 212.966815 
L 879.900261 216.644373 
L 883.419739 219.635335 
L 886.939216 222.325237 
L 890.01876 224.417188 
L 893.098303 226.262619 
L 896.177846 227.867673 
L 899.257389 229.24472 
L 902.776867 230.561087 
L 906.296345 231.631475 
L 910.255757 232.581462 
L 914.21517 233.30612 
L 919.054452 233.947981 
L 924.333669 234.417695 
L 930.93269 234.772714 
L 939.731384 235.006883 
L 953.809296 235.128683 
L 973.166424 235.155292 
L 973.166424 235.155292 
" clip-path="url(#p7842e0e860)" style="fill: none; stroke: #ff0000; stroke-width: 1.5; stroke-linecap: square"/>
   </g>
   <g id="patch_45">
    <path d="M 732.091042 235.1575 
L 732.091042 25.3575 
" style="fill: none; stroke: #000000; stroke-width: 0.8; stroke-linejoin: miter; stroke-linecap: square"/>
   </g>
   <g id="patch_46">
    <path d="M 994.714375 235.1575 
L 994.714375 25.3575 
" style="fill: none; stroke: #000000; stroke-width: 0.8; stroke-linejoin: miter; stroke-linecap: square"/>
   </g>
   <g id="patch_47">
    <path d="M 732.091042 235.1575 
L 994.714375 235.1575 
" style="fill: none; stroke: #000000; stroke-width: 0.8; stroke-linejoin: miter; stroke-linecap: square"/>
   </g>
   <g id="patch_48">
    <path d="M 732.091042 25.3575 
L 994.714375 25.3575 
" style="fill: none; stroke: #000000; stroke-width: 0.8; stroke-linejoin: miter; stroke-linecap: square"/>
   </g>
   <g id="text_48">
    <!-- Distribution of hours-per-week -->
    <g transform="translate(741.872708 19.3575) scale(0.16 -0.16)">
     <use xlink:href="#DejaVuSans-44"/>
     <use xlink:href="#DejaVuSans-69" x="77.001953"/>
     <use xlink:href="#DejaVuSans-73" x="104.785156"/>
     <use xlink:href="#DejaVuSans-74" x="156.884766"/>
     <use xlink:href="#DejaVuSans-72" x="196.09375"/>
     <use xlink:href="#DejaVuSans-69" x="237.207031"/>
     <use xlink:href="#DejaVuSans-62" x="264.990234"/>
     <use xlink:href="#DejaVuSans-75" x="328.466797"/>
     <use xlink:href="#DejaVuSans-74" x="391.845703"/>
     <use xlink:href="#DejaVuSans-69" x="431.054688"/>
     <use xlink:href="#DejaVuSans-6f" x="458.837891"/>
     <use xlink:href="#DejaVuSans-6e" x="520.019531"/>
     <use xlink:href="#DejaVuSans-20" x="583.398438"/>
     <use xlink:href="#DejaVuSans-6f" x="615.185547"/>
     <use xlink:href="#DejaVuSans-66" x="676.367188"/>
     <use xlink:href="#DejaVuSans-20" x="711.572266"/>
     <use xlink:href="#DejaVuSans-68" x="743.359375"/>
     <use xlink:href="#DejaVuSans-6f" x="806.738281"/>
     <use xlink:href="#DejaVuSans-75" x="867.919922"/>
     <use xlink:href="#DejaVuSans-72" x="931.298828"/>
     <use xlink:href="#DejaVuSans-73" x="972.412109"/>
     <use xlink:href="#DejaVuSans-2d" x="1024.511719"/>
     <use xlink:href="#DejaVuSans-70" x="1060.595703"/>
     <use xlink:href="#DejaVuSans-65" x="1124.072266"/>
     <use xlink:href="#DejaVuSans-72" x="1185.595703"/>
     <use xlink:href="#DejaVuSans-2d" x="1220.333984"/>
     <use xlink:href="#DejaVuSans-77" x="1256.417969"/>
     <use xlink:href="#DejaVuSans-65" x="1338.205078"/>
     <use xlink:href="#DejaVuSans-65" x="1399.728516"/>
     <use xlink:href="#DejaVuSans-6b" x="1461.251953"/>
    </g>
   </g>
   <g id="legend_3">
    <g id="patch_49">
     <path d="M 914.33625 77.391875 
L 987.714375 77.391875 
Q 989.714375 77.391875 989.714375 75.391875 
L 989.714375 32.3575 
Q 989.714375 30.3575 987.714375 30.3575 
L 914.33625 30.3575 
Q 912.33625 30.3575 912.33625 32.3575 
L 912.33625 75.391875 
Q 912.33625 77.391875 914.33625 77.391875 
z
" style="fill: #ffffff; opacity: 0.8; stroke: #cccccc; stroke-linejoin: miter"/>
    </g>
    <g id="line2d_49">
     <path d="M 916.33625 38.455938 
L 926.33625 38.455938 
L 936.33625 38.455938 
" style="fill: none; stroke: #0000ff; stroke-width: 1.5; stroke-linecap: square"/>
    </g>
    <g id="text_49">
     <!-- kde -->
     <g transform="translate(944.33625 41.955938) scale(0.1 -0.1)">
      <use xlink:href="#DejaVuSans-6b"/>
      <use xlink:href="#DejaVuSans-64" x="57.910156"/>
      <use xlink:href="#DejaVuSans-65" x="121.386719"/>
     </g>
    </g>
    <g id="line2d_50">
     <path d="M 916.33625 53.134063 
L 926.33625 53.134063 
L 936.33625 53.134063 
" style="fill: none; stroke: #000000; stroke-width: 1.5; stroke-linecap: square"/>
    </g>
    <g id="text_50">
     <!-- norm -->
     <g transform="translate(944.33625 56.634063) scale(0.1 -0.1)">
      <use xlink:href="#DejaVuSans-6e"/>
      <use xlink:href="#DejaVuSans-6f" x="63.378906"/>
      <use xlink:href="#DejaVuSans-72" x="124.560547"/>
      <use xlink:href="#DejaVuSans-6d" x="163.923828"/>
     </g>
    </g>
    <g id="line2d_51">
     <path d="M 916.33625 67.812188 
L 926.33625 67.812188 
L 936.33625 67.812188 
" style="fill: none; stroke: #ff0000; stroke-width: 1.5; stroke-linecap: square"/>
    </g>
    <g id="text_51">
     <!-- lognorm -->
     <g transform="translate(944.33625 71.312188) scale(0.1 -0.1)">
      <use xlink:href="#DejaVuSans-6c"/>
      <use xlink:href="#DejaVuSans-6f" x="27.783203"/>
      <use xlink:href="#DejaVuSans-67" x="88.964844"/>
      <use xlink:href="#DejaVuSans-6e" x="152.441406"/>
      <use xlink:href="#DejaVuSans-6f" x="215.820312"/>
      <use xlink:href="#DejaVuSans-72" x="277.001953"/>
      <use xlink:href="#DejaVuSans-6d" x="316.365234"/>
     </g>
    </g>
   </g>
  </g>
 </g>
 <defs>
  <clipPath id="pcb50dca7b9">
   <rect x="73.764375" y="25.3575" width="262.623333" height="209.8"/>
  </clipPath>
  <clipPath id="pd61bbb0484">
   <rect x="402.927708" y="25.3575" width="262.623333" height="209.8"/>
  </clipPath>
  <clipPath id="p7842e0e860">
   <rect x="732.091042" y="25.3575" width="262.623333" height="209.8"/>
  </clipPath>
 </defs>
</svg>
